<svg xmlns="http://www.w3.org/2000/svg" width="1024" height="1024" viewBox="0 0 1024 1024">
<g>
<path d="M 0.00 0.00 L 1024.00 0.00 L 1024.00 1024.00 L 0.00 1024.00 ZM 543.50 352.50 L 542.99 540.14 L 585.34 539.82 C614.62,539.60 628.13,539.15 629.10,538.38 C629.87,537.77 631.99,537.23 633.82,537.20 C635.64,537.16 637.79,536.59 638.59,535.92 C639.39,535.26 640.33,535.00 640.68,535.35 C641.03,535.70 641.81,535.60 642.41,535.12 C643.01,534.65 645.30,533.72 647.50,533.06 C649.70,532.40 652.40,531.49 653.50,531.03 C654.60,530.58 656.96,529.65 658.75,528.98 C660.54,528.31 662.00,527.40 662.00,526.96 C662.00,526.52 663.58,525.64 665.50,525.00 C667.42,524.36 669.00,523.43 669.00,522.92 C669.00,522.42 669.69,522.00 670.53,522.00 C671.37,522.00 672.32,521.33 672.64,520.50 C672.95,519.67 673.83,519.00 674.57,519.00 C675.32,519.00 676.41,518.10 677.00,517.00 C677.59,515.90 678.69,515.00 679.45,515.00 C681.02,515.00 692.00,502.88 692.00,501.14 C692.00,500.51 692.45,500.00 693.00,500.00 C693.55,500.00 694.00,499.53 694.00,498.96 C694.00,498.39 694.88,496.97 695.97,495.81 C697.05,494.65 697.69,493.32 697.41,492.85 C697.12,492.38 697.39,492.00 698.00,492.00 C698.61,492.00 698.84,491.55 698.50,491.00 C698.16,490.45 698.32,490.00 698.86,490.00 C699.84,490.00 702.60,483.19 702.20,481.75 C702.09,481.34 702.41,481.00 702.92,481.00 C703.84,481.00 705.58,475.26 705.16,473.64 C705.03,473.17 705.44,472.18 706.06,471.43 C706.68,470.68 707.27,468.37 707.38,466.28 C707.49,464.20 707.94,461.90 708.39,461.17 C708.84,460.45 709.21,453.92 709.20,446.68 C709.19,433.99 707.46,421.67 704.79,415.16 C704.19,413.70 703.53,411.62 703.32,410.54 C703.12,409.47 702.47,408.29 701.89,407.93 C701.31,407.57 700.89,406.88 700.95,406.39 C701.16,404.93 697.77,398.00 696.85,398.00 C696.38,398.00 696.00,397.32 696.00,396.49 C696.00,395.66 695.12,394.23 694.05,393.31 C692.98,392.39 692.32,391.30 692.58,390.87 C692.84,390.45 692.14,389.61 691.03,389.01 C689.91,388.42 689.00,387.34 689.00,386.61 C689.00,385.23 680.55,376.94 675.64,373.50 C674.06,372.40 672.27,371.05 671.64,370.50 C671.01,369.95 669.26,368.86 667.75,368.08 C666.24,367.30 665.00,366.29 665.00,365.83 C665.00,365.37 664.10,365.00 663.00,365.00 C661.90,365.00 661.00,364.55 661.00,364.00 C661.00,363.45 660.25,363.00 659.34,363.00 C658.42,363.00 655.78,361.89 653.47,360.53 C651.15,359.18 647.51,357.63 645.38,357.09 C643.25,356.56 639.70,355.68 637.50,355.14 C625.94,352.29 618.23,351.89 581.50,352.19 ZM 395.61 539.42 C396.15,540.84 402.46,541.00 456.63,541.00 L 517.04 541.00 L 516.77 522.25 L 516.50 503.50 L 474.75 503.24 L 433.00 502.98 L 433.00 464.00 L 468.00 464.00 C500.63,464.00 503.12,463.88 504.84,462.16 C506.43,460.57 506.71,458.36 506.90,445.35 C507.03,437.12 506.83,429.17 506.46,427.69 L 505.78 425.00 L 432.50 425.00 L 432.50 389.00 L 517.04 389.00 L 516.77 370.25 L 516.50 351.50 L 395.00 350.98 L 395.00 444.41 C395.00,495.79 395.27,538.55 395.61,539.42 ZM 779.57 541.11 C780.56,542.72 810.40,541.74 812.46,540.04 C813.26,539.37 814.32,539.08 814.82,539.39 C816.00,540.12 829.00,535.96 829.00,534.85 C829.00,534.38 829.90,534.00 831.00,534.00 C832.10,534.00 833.00,533.60 833.00,533.11 C833.00,532.62 834.80,531.50 837.00,530.62 C839.20,529.74 841.00,528.56 841.00,528.01 C841.00,527.45 841.58,527.00 842.29,527.00 C843.00,527.00 845.57,524.97 848.00,522.50 C850.43,520.03 852.04,518.00 851.57,518.00 C851.11,518.00 851.91,516.82 853.35,515.38 C854.79,513.94 855.72,512.36 855.43,511.88 C855.13,511.40 855.39,511.00 856.00,511.00 C856.61,511.00 856.84,510.55 856.50,510.00 C856.16,509.45 856.43,509.00 857.11,509.00 C857.78,509.00 858.03,508.70 857.66,508.33 C857.29,507.96 857.68,506.61 858.52,505.33 C859.36,504.05 859.76,503.00 859.40,503.00 C859.05,503.00 859.27,502.38 859.91,501.61 C862.15,498.91 863.46,483.68 862.17,475.35 C861.51,471.13 860.54,467.15 860.00,466.50 C859.46,465.85 859.31,465.02 859.68,464.66 C860.04,464.30 859.88,464.00 859.32,464.00 C858.77,464.00 857.76,462.14 857.08,459.87 C856.27,457.15 853.88,453.79 850.09,450.01 C844.45,444.39 842.07,442.72 835.00,439.45 C833.08,438.56 829.17,436.75 826.31,435.42 C823.46,434.09 820.44,433.00 819.60,433.00 C818.76,433.00 815.70,432.17 812.79,431.16 C807.70,429.40 799.08,426.67 788.50,423.50 C776.48,419.89 768.76,413.55 767.37,406.15 C766.52,401.63 768.51,394.03 771.00,392.29 C772.04,391.56 773.57,390.29 774.38,389.48 C775.19,388.66 776.54,388.00 777.37,388.00 C778.20,388.00 779.11,387.62 779.40,387.16 C779.68,386.70 782.07,386.25 784.71,386.15 C787.34,386.05 790.25,385.73 791.16,385.45 C792.07,385.16 796.80,385.45 801.66,386.10 C806.52,386.75 811.40,387.30 812.50,387.33 C813.60,387.35 814.77,387.76 815.09,388.24 C815.41,388.71 816.76,389.17 818.09,389.25 C819.42,389.34 820.72,389.70 821.00,390.07 C821.71,391.02 831.89,396.08 832.45,395.76 C832.71,395.62 833.58,396.40 834.40,397.50 C836.21,399.94 838.32,398.95 840.82,394.50 C841.74,392.85 842.84,391.35 843.25,391.17 C843.66,390.98 844.00,390.24 844.00,389.52 C844.00,388.80 844.70,387.94 845.56,387.61 C846.42,387.28 846.88,386.61 846.57,386.11 C846.26,385.62 846.68,384.95 847.51,384.64 C848.33,384.32 849.00,383.37 849.00,382.53 C849.00,381.69 849.46,381.00 850.02,381.00 C850.58,381.00 851.59,379.76 852.26,378.25 C852.93,376.74 854.16,374.95 854.99,374.28 C855.82,373.61 856.08,373.05 855.56,373.03 C855.04,373.01 855.49,372.30 856.56,371.44 C857.96,370.31 858.15,369.73 857.23,369.35 C856.53,369.06 855.33,368.19 854.55,367.41 C853.78,366.63 852.66,366.00 852.07,366.00 C851.48,366.00 851.00,365.58 851.00,365.08 C851.00,364.57 849.46,363.65 847.58,363.03 C845.70,362.41 843.62,361.25 842.96,360.45 C842.30,359.65 840.69,359.00 839.38,359.00 C838.07,359.00 837.00,358.59 837.00,358.08 C837.00,357.57 835.54,356.85 833.75,356.46 C831.96,356.08 830.05,355.43 829.50,355.01 C828.95,354.59 827.15,353.99 825.50,353.67 C823.85,353.35 820.25,352.61 817.50,352.03 C804.09,349.20 796.66,348.69 785.21,349.82 C778.93,350.43 773.27,351.32 772.64,351.79 C772.01,352.26 768.58,353.51 765.00,354.55 C755.89,357.22 748.97,362.04 738.84,372.75 C737.93,373.71 736.38,376.52 735.41,379.00 C734.43,381.48 733.37,383.73 733.04,384.00 C731.84,385.01 729.65,396.71 729.26,404.22 C728.73,414.20 731.17,425.35 735.26,431.72 C738.66,437.00 743.94,443.00 745.20,443.00 C745.64,443.00 746.90,443.90 748.00,445.00 C749.10,446.10 750.67,447.00 751.50,447.00 C752.33,447.00 753.00,447.48 753.00,448.06 C753.00,448.64 753.45,448.84 754.00,448.50 C754.55,448.16 755.00,448.39 755.00,449.00 C755.00,449.61 755.45,449.84 756.00,449.50 C756.55,449.16 757.00,449.39 757.00,450.00 C757.00,450.61 757.45,450.84 758.00,450.50 C758.55,450.16 759.00,450.25 759.00,450.71 C759.00,451.71 770.39,456.34 772.79,456.32 C773.73,456.31 774.72,456.61 775.00,456.99 C775.92,458.26 785.06,460.91 786.54,460.35 C787.34,460.04 788.00,460.26 788.00,460.85 C788.00,461.92 794.42,463.61 796.75,463.16 C797.44,463.02 798.00,463.32 798.00,463.83 C798.00,464.73 806.81,467.66 808.25,467.22 C808.66,467.10 809.00,467.41 809.00,467.90 C809.00,468.65 812.01,470.10 815.21,470.90 C817.25,471.41 821.76,477.26 822.81,480.75 C824.50,486.40 824.30,489.76 821.97,494.55 C819.99,498.65 816.02,503.20 815.98,501.40 C815.98,500.91 815.60,501.09 815.14,501.80 C813.67,504.13 802.91,506.26 792.50,506.30 C782.46,506.33 773.95,504.90 769.11,502.37 C767.67,501.62 765.77,501.01 764.87,501.01 C763.98,501.00 762.68,500.33 762.00,499.50 C761.32,498.67 759.91,498.00 758.88,498.00 C757.84,498.00 757.00,497.56 757.00,497.02 C757.00,496.48 755.88,495.76 754.50,495.41 C753.12,495.07 752.00,494.44 752.00,494.02 C752.00,492.54 743.87,487.91 742.19,488.44 C741.26,488.73 739.94,490.25 739.25,491.80 C738.56,493.35 737.10,495.59 736.00,496.77 C734.90,497.95 734.00,499.16 734.00,499.46 C734.00,499.76 733.21,500.83 732.25,501.84 C731.29,502.86 729.73,504.99 728.78,506.59 C725.81,511.61 724.53,513.48 723.61,514.14 C722.24,515.14 723.85,520.00 725.55,520.00 C726.38,520.00 727.32,520.67 727.64,521.50 C727.95,522.33 728.59,523.00 729.06,523.00 C729.52,523.00 731.10,524.12 732.57,525.48 C734.05,526.85 735.65,527.72 736.13,527.42 C736.61,527.13 737.00,527.43 737.00,528.11 C737.00,528.78 737.28,529.05 737.62,528.71 C737.96,528.37 738.90,528.75 739.70,529.56 C740.50,530.36 741.57,530.76 742.08,530.45 C742.59,530.14 743.00,530.39 743.00,531.00 C743.00,531.61 743.45,531.84 744.00,531.50 C744.55,531.16 745.00,531.29 745.00,531.78 C745.00,532.84 752.93,535.62 754.75,535.20 C755.44,535.04 756.00,535.33 756.00,535.83 C756.00,537.08 768.46,540.14 770.43,539.39 C771.33,539.04 772.00,539.31 772.00,540.00 C772.00,540.85 773.05,541.03 775.42,540.58 C777.60,540.17 779.11,540.36 779.57,541.11 ZM 263.50 699.42 C268.46,700.18 280.70,700.85 290.78,700.90 C312.09,701.02 315.15,700.28 317.59,694.43 C319.57,689.71 318.65,685.72 314.85,682.53 C311.89,680.04 311.57,680.00 294.80,680.00 C274.72,680.00 260.29,678.13 247.50,673.88 C208.01,660.75 179.66,625.83 175.07,584.67 C173.64,571.85 173.64,454.15 175.07,441.33 C178.21,413.21 192.93,385.59 213.64,369.01 C229.24,356.51 249.68,348.00 268.77,346.06 C280.49,344.87 283.52,343.41 284.94,338.26 C286.26,333.48 284.20,328.67 279.87,326.43 C277.21,325.06 275.03,324.86 268.35,325.37 C232.87,328.10 198.70,347.18 177.19,376.27 C166.62,390.57 157.76,411.97 154.58,430.93 C152.23,444.94 152.22,582.68 154.57,595.07 C159.20,619.46 170.68,642.24 186.99,659.41 C208.41,681.96 232.71,694.66 263.50,699.42 ZM 627.50 501.75 C619.76,503.69 615.88,504.01 599.75,504.00 L 581.00 504.00 L 581.00 388.50 L 598.75 388.78 C608.51,388.94 618.97,389.56 622.00,390.16 C625.03,390.77 628.51,391.25 629.75,391.24 C630.99,391.22 632.00,391.60 632.00,392.07 C632.00,392.55 632.67,392.68 633.50,392.36 C634.33,392.05 635.00,392.31 635.00,392.95 C635.00,393.59 635.45,393.84 636.00,393.50 C636.55,393.16 637.00,393.39 637.00,394.00 C637.00,394.61 637.45,394.84 638.00,394.50 C638.55,394.16 639.00,394.43 639.00,395.11 C639.00,395.78 639.28,396.05 639.62,395.71 C639.96,395.37 640.90,395.75 641.70,396.56 C642.50,397.36 643.57,397.76 644.08,397.45 C644.59,397.14 645.00,397.33 645.00,397.87 C645.00,398.42 645.87,399.14 646.93,399.48 C649.45,400.28 663.00,413.92 663.00,415.66 C663.00,416.40 663.40,417.00 663.88,417.00 C665.00,417.00 668.56,426.88 669.94,433.80 C671.75,442.86 670.61,466.29 668.28,467.89 C667.20,468.63 664.00,475.38 664.00,476.90 C664.00,477.51 663.55,478.00 663.00,478.00 C662.45,478.00 662.00,478.45 662.00,479.00 C662.00,480.15 650.38,492.00 649.25,492.00 C648.84,492.00 647.18,493.14 645.56,494.53 C643.95,495.92 641.47,497.34 640.06,497.68 C638.65,498.03 637.28,498.58 637.00,498.90 C636.72,499.23 632.45,500.51 627.50,501.75 ZM 260.84 630.07 C277.02,646.31 278.61,647.64 281.80,647.53 C286.30,647.38 288.92,644.25 288.48,639.55 C288.21,636.63 286.36,634.30 276.76,624.79 C270.49,618.58 263.03,610.85 260.18,607.60 L 255.00 601.70 L 255.00 529.08 L 260.05 524.36 C262.83,521.76 267.35,516.86 270.10,513.47 C272.85,510.08 276.87,506.00 279.03,504.41 C281.20,502.81 283.23,500.72 283.54,499.77 C283.86,498.82 287.92,494.26 292.56,489.64 C297.20,485.02 301.03,480.40 301.06,479.37 C301.09,478.34 301.06,468.68 301.00,457.90 L 300.90 438.30 L 304.52 434.40 C306.52,432.26 309.61,428.92 311.39,427.00 C313.17,425.08 315.10,422.66 315.67,421.64 C316.58,420.00 317.00,419.93 319.10,421.08 C323.16,423.28 333.81,422.59 339.00,419.79 C344.43,416.86 351.13,411.02 350.41,409.85 C350.12,409.38 350.32,409.00 350.85,409.00 C353.55,409.00 356.50,391.04 354.04,389.53 C353.52,389.20 353.34,388.28 353.65,387.47 C353.96,386.66 353.69,386.00 353.05,386.00 C352.41,386.00 352.16,385.55 352.50,385.00 C352.84,384.45 352.61,384.00 352.00,384.00 C351.39,384.00 351.16,383.55 351.50,383.00 C351.84,382.45 351.64,382.00 351.06,382.00 C350.48,382.00 350.00,381.60 350.00,381.10 C350.00,380.61 348.47,378.69 346.61,376.85 C333.04,363.46 312.90,367.03 304.38,384.33 C301.35,390.48 300.94,399.45 303.41,405.22 C304.28,407.26 305.00,409.31 305.00,409.77 C305.00,410.51 302.45,413.40 291.84,424.68 C287.00,429.83 286.00,435.08 286.00,455.32 L 286.00 473.33 L 279.77 480.41 C276.34,484.31 270.38,490.66 266.52,494.52 C262.66,498.39 255.11,506.19 249.75,511.86 L 240.00 522.17 L 240.00 564.86 C240.00,602.99 240.18,607.82 241.66,610.03 C242.57,611.39 251.20,620.41 260.84,630.07 ZM 290.60 605.58 C292.93,606.44 296.28,606.81 298.92,606.50 C304.33,605.88 311.72,601.70 313.22,598.43 C313.82,597.09 314.73,596.00 315.22,596.00 C315.71,596.00 315.86,595.59 315.55,595.09 C315.24,594.58 315.47,594.01 316.06,593.81 C317.35,593.38 318.06,580.15 316.83,579.40 C316.36,579.10 316.23,578.44 316.54,577.93 C316.86,577.42 316.61,577.00 316.00,577.00 C315.39,577.00 315.16,576.55 315.50,576.00 C315.84,575.45 315.75,575.00 315.30,575.00 C314.84,575.00 314.03,574.00 313.49,572.77 C312.94,571.55 310.59,569.27 308.25,567.71 L 304.00 564.87 L 304.00 547.90 C304.00,546.96 304.00,546.08 304.00,545.23 C303.98,536.83 303.98,532.77 305.44,529.33 C306.95,525.77 310.03,522.87 316.32,516.50 C321.20,511.55 326.33,506.27 327.70,504.77 C329.52,502.79 330.66,502.27 331.85,502.89 C332.76,503.35 334.06,503.53 334.75,503.28 C335.44,503.04 336.00,503.21 336.00,503.67 C336.00,504.88 347.76,505.20 348.50,504.00 C348.84,503.45 349.92,503.00 350.91,503.00 C352.46,503.00 354.62,501.61 358.50,498.14 C360.49,496.35 362.94,493.02 364.62,489.80 C366.77,485.68 367.08,475.01 365.13,472.65 C364.37,471.74 364.05,471.00 364.40,471.00 C365.51,471.00 362.31,465.61 359.85,463.32 C355.48,459.27 347.55,456.00 342.11,456.00 C337.21,456.00 329.00,458.65 329.00,460.24 C329.00,460.66 328.44,461.01 327.75,461.02 C326.22,461.05 322.04,467.02 319.54,472.77 C317.95,476.42 317.82,477.99 318.64,483.52 L 319.61 490.01 L 315.96 494.42 C313.96,496.85 307.35,503.76 301.27,509.78 C295.74,515.25 292.73,517.95 291.06,521.32 C288.82,525.83 288.99,531.53 288.79,546.70 C288.65,557.11 288.11,565.50 287.52,566.29 C286.96,567.05 285.53,568.19 284.34,568.82 C280.48,570.88 277.08,578.44 276.92,585.32 C276.81,590.38 277.28,592.38 279.52,596.33 C281.03,598.99 282.99,601.43 283.88,601.76 C284.77,602.09 285.77,602.75 286.10,603.24 C286.43,603.73 288.45,604.78 290.60,605.58 ZM 202.94 603.75 C204.12,604.99 205.96,606.00 207.05,606.00 C209.18,606.00 214.46,601.28 214.61,599.25 C214.66,598.56 214.78,578.09 214.88,553.75 L 215.05 509.50 L 230.28 493.94 C238.65,485.39 246.62,477.47 248.00,476.35 C249.38,475.23 252.07,472.56 254.00,470.41 L 257.49 466.50 L 257.83 455.25 C258.02,449.06 258.49,444.00 258.89,444.00 C260.00,444.00 269.49,434.60 269.23,433.75 C269.10,433.34 269.48,433.00 270.06,433.00 C270.64,433.00 270.84,432.55 270.50,432.00 C270.16,431.45 270.36,431.00 270.94,431.00 C271.52,431.00 271.95,430.66 271.88,430.25 C271.82,429.84 271.85,429.27 271.95,429.00 C272.57,427.36 272.47,416.00 271.83,416.00 C271.41,416.00 271.32,415.33 271.64,414.50 C271.95,413.67 271.69,413.00 271.05,413.00 C270.41,413.00 270.16,412.55 270.50,412.00 C270.84,411.45 270.64,411.00 270.06,411.00 C269.48,411.00 269.00,410.37 269.00,409.60 C269.00,407.27 262.61,402.43 257.71,401.06 C252.26,399.53 239.82,400.04 239.23,401.81 C239.01,402.46 238.44,403.00 237.96,403.00 C236.41,403.00 229.77,410.42 228.37,413.72 C226.04,419.19 226.64,426.34 229.97,432.94 C232.78,438.51 237.98,443.69 239.36,442.30 C239.71,441.95 240.00,442.19 240.00,442.83 C240.00,443.48 240.54,443.89 241.19,443.75 C242.05,443.57 242.30,445.70 242.09,451.46 L 241.81 459.42 L 221.54 480.16 C203.82,498.28 201.12,501.46 200.13,505.39 C198.75,510.88 198.54,595.70 199.90,599.18 C200.40,600.46 201.77,602.51 202.94,603.75 ZM 747.61 621.42 C748.07,622.63 749.69,623.00 754.47,623.00 C762.45,623.00 770.09,621.96 769.48,620.96 C769.21,620.53 769.97,620.44 771.15,620.75 C772.76,621.17 773.11,620.98 772.50,620.00 C771.97,619.15 772.08,618.93 772.82,619.39 C775.42,621.00 783.75,614.15 782.30,611.59 C781.96,610.99 782.05,610.84 782.50,611.25 C784.19,612.77 787.27,605.52 787.71,599.00 C788.05,593.99 787.89,592.84 787.01,594.00 C786.08,595.22 785.99,595.08 786.50,593.25 C787.26,590.54 786.22,586.74 784.94,587.54 C784.43,587.85 784.32,587.33 784.68,586.39 C785.16,585.13 784.99,584.89 784.02,585.49 C783.14,586.03 782.93,585.92 783.40,585.17 C783.78,584.54 783.11,583.01 781.90,581.76 C780.70,580.52 780.04,580.17 780.44,581.00 C780.84,581.83 780.35,581.54 779.34,580.36 C777.25,577.92 772.47,575.32 769.50,574.99 C768.40,574.87 762.89,574.82 757.25,574.88 L 747.00 575.00 L 747.00 597.42 C747.00,609.75 747.27,620.55 747.61,621.42 ZM 572.49 633.75 C572.87,635.30 573.78,636.00 575.44,636.00 C580.55,636.00 581.00,635.29 581.00,627.29 C581.00,620.53 581.17,619.86 582.75,620.53 C583.71,620.93 585.29,621.23 586.25,621.20 C587.21,621.16 588.00,621.55 588.00,622.06 C588.00,625.24 601.34,620.44 603.44,616.50 C604.02,615.40 604.81,614.27 605.19,613.98 C607.41,612.30 608.95,602.29 607.25,600.58 C606.84,600.17 606.44,599.42 606.38,598.92 C606.31,598.41 606.19,597.62 606.12,597.15 C605.92,595.74 599.54,589.59 596.76,588.12 C594.85,587.11 592.63,586.96 588.33,587.54 C585.12,587.97 580.25,588.37 577.50,588.41 L 572.50 588.50 L 572.22 610.00 C572.06,621.83 572.18,632.51 572.49,633.75 ZM 396.16 622.25 C396.07,622.66 402.67,623.00 410.83,623.00 C425.40,623.00 425.68,622.96 426.93,620.64 C427.95,618.72 427.94,617.88 426.85,616.14 C425.64,614.19 424.56,613.98 414.51,613.80 L 403.50 613.60 L 425.50 612.40 L 415.49 612.20 L 405.49 612.00 L 405.84 607.50 L 406.20 603.00 L 425.59 603.00 L 425.83 599.46 C426.20,593.98 424.48,593.00 414.57,593.00 L 406.00 593.00 L 406.00 584.00 L 416.44 584.00 C423.25,584.00 427.13,583.60 427.60,582.85 C428.08,582.06 427.86,581.96 426.90,582.54 C425.71,583.26 425.71,583.13 426.86,581.70 C427.69,580.69 427.92,579.33 427.45,578.26 C427.03,577.29 426.76,576.15 426.85,575.72 C426.94,575.30 419.93,575.07 411.26,575.22 L 395.50 575.50 L 395.23 596.98 C395.08,608.79 395.26,619.14 395.64,619.98 C396.01,620.81 396.25,621.84 396.16,622.25 ZM 591.75 690.28 C593.26,690.51 595.04,690.77 595.69,690.85 C596.35,690.93 597.16,690.55 597.50,690.00 C597.84,689.45 599.44,689.00 601.06,689.00 C602.68,689.00 604.00,688.55 604.00,688.00 C604.00,687.45 604.52,687.00 605.16,687.00 C606.89,687.00 613.08,679.69 612.55,678.28 C612.30,677.61 612.52,676.80 613.04,676.47 C614.17,675.77 614.33,669.67 613.25,668.58 C612.84,668.17 612.46,667.53 612.41,667.17 C612.13,664.98 610.17,662.10 607.06,659.29 C599.86,652.79 588.08,653.91 581.54,661.72 C578.86,664.92 578.58,665.96 578.54,672.55 C578.50,680.41 580.31,684.43 584.83,686.49 C586.02,687.03 587.00,687.84 587.00,688.30 C587.00,688.75 587.45,688.84 588.00,688.50 C588.55,688.16 589.00,688.33 589.00,688.87 C589.00,689.42 590.24,690.05 591.75,690.28 ZM 448.12 690.00 C449.98,690.43 452.17,690.56 453.00,690.27 C453.83,689.98 455.17,689.65 456.00,689.54 C459.78,689.01 464.91,685.93 467.10,682.86 C469.09,680.07 469.50,678.29 469.50,672.42 C469.50,666.33 469.14,664.87 466.89,661.92 C464.09,658.25 456.81,654.98 451.50,655.00 C447.41,655.02 438.00,659.52 438.00,661.45 C438.00,662.30 437.60,663.00 437.11,663.00 C436.27,663.00 435.50,665.74 434.43,672.50 C434.10,674.58 434.81,677.01 436.73,680.42 C439.89,686.02 443.25,688.85 448.12,690.00 ZM 400.50 688.15 C403.72,689.69 406.03,689.97 412.40,689.60 C416.74,689.35 420.56,688.74 420.90,688.25 C421.23,687.76 422.26,687.07 423.19,686.73 C426.06,685.68 428.35,681.03 428.59,675.83 C428.78,671.65 428.40,670.45 426.16,668.16 C424.70,666.67 421.92,664.82 420.00,664.06 C418.08,663.29 416.05,662.33 415.50,661.92 C414.95,661.51 412.70,660.84 410.50,660.43 C404.46,659.31 402.14,655.01 405.66,651.49 C407.93,649.22 419.28,650.21 420.89,652.82 C421.39,653.63 422.55,653.03 424.56,650.91 L 427.50 647.82 L 424.18 645.03 C422.36,643.49 419.25,641.98 417.29,641.66 C410.35,640.53 399.36,643.07 397.30,646.28 C395.84,648.55 394.24,656.22 394.78,658.37 C395.89,662.77 403.19,669.62 405.35,668.28 C405.83,667.99 406.51,668.17 406.86,668.69 C407.21,669.21 409.98,670.28 413.00,671.07 C417.69,672.29 418.54,672.88 418.80,675.05 C418.97,676.52 418.24,678.57 417.06,679.93 C415.25,682.02 414.44,682.21 409.86,681.67 C406.55,681.28 403.85,680.27 402.35,678.86 C400.27,676.91 399.73,676.81 397.56,677.97 C392.55,680.65 393.80,684.96 400.50,688.15 ZM 518.00 622.01 C518.00,622.85 519.01,623.03 521.25,622.59 C527.33,621.39 528.50,621.17 529.07,621.08 C529.38,621.04 531.09,619.70 532.87,618.11 L 536.11 615.23 L 533.44 613.13 C531.04,611.24 530.58,611.18 528.67,612.52 C524.89,615.17 516.05,614.03 513.77,610.60 C511.70,607.51 513.04,607.06 525.25,606.78 L 537.50 606.50 L 537.26 602.56 C537.13,600.40 536.68,598.37 536.26,598.06 C535.84,597.75 535.35,596.84 535.18,596.03 C535.00,595.22 533.37,593.12 531.56,591.36 C526.11,586.06 515.25,585.87 508.78,590.96 C505.57,593.48 502.58,602.77 503.54,607.22 C504.64,612.33 507.96,618.18 510.08,618.73 C511.14,619.01 512.00,619.62 512.00,620.09 C512.00,620.55 512.67,620.68 513.50,620.36 C514.33,620.05 515.00,620.27 515.00,620.86 C515.00,621.45 515.67,621.68 516.50,621.36 C517.33,621.04 518.00,621.33 518.00,622.01 ZM 705.00 621.89 C705.00,623.21 708.64,623.39 709.43,622.11 C709.73,621.63 711.46,620.95 713.27,620.61 C717.39,619.84 720.89,617.45 720.62,615.61 C720.02,611.52 714.94,609.49 713.18,612.64 C712.46,613.93 711.14,614.18 706.79,613.82 C700.82,613.32 698.04,611.57 698.77,608.78 C699.18,607.20 700.54,607.00 710.62,607.00 L 722.00 607.00 L 722.16 603.75 C722.40,598.82 722.04,596.53 720.97,596.17 C720.44,595.98 719.99,595.31 719.98,594.67 C719.95,592.66 715.23,588.90 711.42,587.85 C709.42,587.30 705.49,587.16 702.71,587.54 C698.51,588.12 697.03,588.91 694.07,592.20 C689.93,596.79 689.24,598.66 689.10,605.53 C689.00,610.61 690.13,613.13 694.44,617.44 C695.57,618.57 696.84,619.39 697.25,619.25 C697.66,619.11 698.00,619.48 698.00,620.06 C698.00,620.64 698.45,620.84 699.00,620.50 C699.55,620.16 700.00,620.37 700.00,620.96 C700.00,621.61 700.99,621.79 702.50,621.41 C704.04,621.02 705.00,621.21 705.00,621.89 ZM 806.25 622.33 C809.85,623.08 817.19,621.96 818.73,620.42 C819.51,619.64 820.59,619.00 821.14,619.00 C821.69,619.00 822.74,618.40 823.48,617.67 C824.59,616.55 824.47,615.80 822.78,613.11 L 820.74 609.90 L 818.42 612.08 C816.46,613.91 815.25,614.19 810.65,613.80 C805.13,613.35 802.74,611.91 802.21,608.75 C801.94,607.16 803.04,607.00 813.94,607.00 C825.93,607.00 825.96,606.99 826.59,604.50 C826.93,603.13 826.87,601.22 826.46,600.25 C826.04,599.29 825.57,597.87 825.42,597.10 C825.26,596.33 824.54,595.32 823.82,594.87 C823.09,594.41 822.91,594.02 823.40,594.02 C825.12,593.99 820.50,589.72 817.28,588.36 C815.51,587.61 811.79,587.00 809.01,587.00 C804.51,587.00 803.48,587.43 799.64,590.98 C794.07,596.11 791.59,602.99 793.26,608.66 C794.41,612.58 799.75,619.70 801.20,619.25 C801.64,619.11 802.00,619.48 802.00,620.06 C802.00,620.64 802.45,620.84 803.00,620.50 C803.55,620.16 804.00,620.33 804.00,620.87 C804.00,621.42 805.01,622.07 806.25,622.33 ZM 460.61 621.42 C461.32,623.28 467.50,623.61 468.60,621.85 C469.07,621.07 468.85,620.96 467.90,621.49 C466.77,622.14 466.74,622.04 467.75,620.95 C469.44,619.13 469.48,598.88 467.80,597.20 C467.14,596.54 466.94,596.00 467.36,596.00 C467.77,596.00 467.32,594.65 466.34,593.00 C464.03,589.09 458.09,586.86 451.20,587.31 C448.29,587.50 445.67,587.28 445.39,586.83 C445.11,586.37 444.35,586.01 443.69,586.02 C442.98,586.02 443.10,586.42 444.00,587.00 C445.12,587.72 444.57,587.97 441.83,587.98 C441.65,587.99 441.48,587.99 441.31,587.99 C439.06,587.99 437.60,588.00 436.67,588.69 C435.00,589.95 435.00,593.44 435.00,603.23 C435.00,603.64 435.00,604.06 435.00,604.49 L 435.00 619.76 L 437.85 620.94 C439.41,621.58 441.89,621.82 443.35,621.45 L 446.00 620.78 L 446.00 610.44 C446.00,604.57 446.52,598.96 447.19,597.48 C448.26,595.14 448.85,594.91 452.92,595.20 C458.99,595.64 459.97,597.72 459.99,610.17 C459.99,615.49 460.27,620.55 460.61,621.42 ZM 504.75 690.32 C507.06,690.94 511.88,690.07 515.00,688.49 C517.06,687.44 517.73,687.46 518.79,688.61 C520.37,690.32 524.18,690.42 525.80,688.80 C526.63,687.97 527.00,682.76 527.00,671.80 L 527.00 656.00 L 522.07 656.00 C516.11,656.00 516.02,656.19 516.02,668.51 C516.02,673.45 515.94,678.17 515.84,679.00 C515.59,681.17 507.19,681.66 506.38,679.55 C506.06,678.70 505.50,678.19 505.15,678.41 C504.79,678.63 504.54,673.57 504.59,667.16 L 504.67 655.50 L 503.39 676.50 L 503.00 656.00 L 495.00 656.00 L 495.02 667.25 C495.05,679.65 497.10,686.69 500.99,687.71 C502.10,688.00 503.00,688.60 503.00,689.04 C503.00,689.49 503.79,690.06 504.75,690.32 ZM 620.85 689.07 C621.04,689.64 622.84,689.97 624.85,689.80 L 628.50 689.50 L 629.00 678.16 C629.47,667.60 629.67,666.68 631.98,664.82 C634.71,662.61 640.65,662.84 642.15,665.21 C642.60,665.92 642.98,671.28 642.98,677.13 C643.00,688.84 643.70,690.39 648.69,689.82 L 651.50 689.50 L 651.63 677.00 C651.70,670.12 651.34,663.69 650.82,662.70 C650.30,661.71 648.49,659.57 646.79,657.95 C644.16,655.44 642.91,655.00 638.35,655.00 C635.41,655.00 633.00,655.41 633.00,655.91 C633.00,656.40 630.33,656.57 627.05,656.27 L 621.10 655.73 L 620.80 671.88 C620.63,680.76 620.66,688.50 620.85,689.07 ZM 488.25 622.30 C491.08,622.86 496.13,622.07 497.68,620.82 C498.52,620.14 498.57,619.07 497.85,617.00 C497.07,614.76 496.14,614.05 493.67,613.81 L 490.50 613.50 L 489.92 596.00 L 493.44 596.00 C496.26,596.00 497.07,595.55 497.52,593.75 C498.46,589.96 497.47,586.51 495.40,586.36 C494.35,586.28 492.80,586.16 491.95,586.11 C490.85,586.03 490.32,584.77 490.14,581.82 C489.82,576.37 489.52,576.00 485.38,576.00 C483.46,576.00 482.13,576.40 482.44,576.90 C482.74,577.39 482.32,578.05 481.49,578.36 C480.50,578.74 480.00,580.33 480.00,583.06 C480.00,586.35 479.59,587.29 478.00,587.71 C476.42,588.12 476.00,589.07 476.00,592.23 C476.00,595.96 476.17,596.20 478.50,595.76 L 481.00 595.28 L 481.01 605.39 C481.03,615.52 482.38,620.77 484.83,620.25 C485.47,620.11 486.00,620.42 486.00,620.93 C486.00,621.44 487.01,622.06 488.25,622.30 ZM 667.00 622.10 C667.00,623.58 677.32,622.55 677.83,621.02 C678.01,620.46 678.79,620.00 679.56,620.00 C682.01,620.00 684.15,615.47 683.74,611.12 C683.31,606.49 680.90,604.11 673.92,601.41 C668.65,599.38 666.51,597.60 667.47,596.05 C668.25,594.78 677.00,594.90 677.00,596.19 C677.00,597.95 678.97,596.85 681.05,593.92 C683.70,590.20 683.07,589.36 676.25,587.57 C671.81,586.40 670.60,586.44 666.09,587.97 C659.94,590.05 660.02,589.99 659.09,594.17 C657.69,600.47 661.35,607.06 665.75,606.17 C666.44,606.03 667.00,606.33 667.00,606.83 C667.00,607.34 668.42,608.03 670.15,608.38 C676.46,609.64 677.45,613.30 671.81,614.54 C669.81,614.98 667.44,614.60 664.85,613.43 C661.20,611.79 660.79,611.78 659.27,613.30 C657.85,614.72 657.81,615.28 658.98,617.45 C660.31,619.95 663.36,621.61 665.75,621.15 C666.44,621.02 667.00,621.44 667.00,622.10 ZM 667.75 690.36 C670.75,691.23 678.05,690.09 679.63,688.51 C680.46,687.68 681.71,687.00 682.41,687.00 C683.11,687.00 684.20,685.85 684.84,684.45 C686.26,681.33 686.36,676.00 685.00,676.00 C684.45,676.00 684.11,675.51 684.25,674.91 C684.56,673.56 683.30,672.77 674.68,668.95 C670.72,667.19 668.03,665.41 668.26,664.71 C668.77,663.15 679.00,662.47 679.00,663.99 C679.00,664.59 680.19,663.98 681.64,662.63 C684.97,659.54 684.29,657.70 679.24,656.19 C672.19,654.08 666.91,654.68 663.25,658.02 C659.35,661.56 658.98,665.61 662.08,670.63 C664.08,673.86 665.01,674.43 667.75,674.07 C668.44,673.99 669.00,674.37 669.00,674.92 C669.00,675.48 669.67,675.68 670.50,675.36 C671.33,675.05 672.00,675.24 672.00,675.78 C672.00,676.33 673.12,677.07 674.50,677.41 C677.51,678.17 677.76,680.52 674.99,682.01 C672.49,683.34 666.33,682.29 665.60,680.41 C665.17,679.29 664.56,679.24 662.55,680.16 C659.80,681.41 658.02,685.17 659.89,685.80 C660.52,686.01 661.59,686.74 662.28,687.42 C662.96,688.10 664.08,688.47 664.76,688.25 C665.44,688.02 666.00,688.29 666.00,688.84 C666.00,689.40 666.79,690.08 667.75,690.36 ZM 841.50 618.75 C842.85,621.42 843.73,622.00 846.42,622.00 C848.30,622.00 850.38,621.23 851.32,620.20 C852.98,618.37 859.27,604.00 858.42,604.00 C858.16,604.00 858.69,602.88 859.59,601.50 C860.49,600.12 860.94,599.00 860.59,599.00 C860.24,599.00 860.64,597.95 861.48,596.67 C862.32,595.39 862.71,594.04 862.34,593.67 C861.97,593.30 862.14,593.00 862.72,593.00 C863.29,593.00 863.98,591.88 864.24,590.50 C864.70,588.12 864.50,588.00 860.00,588.00 L 855.28 588.00 L 853.11 594.75 C850.68,602.31 847.95,608.00 846.75,608.00 C845.91,608.00 843.94,603.76 843.34,600.67 C843.15,599.67 842.45,597.87 841.78,596.67 C841.12,595.48 840.50,594.16 840.41,593.75 C840.32,593.34 840.14,592.78 840.00,592.50 C839.68,591.86 839.28,590.28 839.12,589.00 C838.99,587.95 829.00,587.56 829.00,588.60 C829.00,589.20 829.77,591.00 834.29,601.00 C835.66,604.03 837.48,608.53 838.32,611.00 C839.16,613.47 840.59,616.96 841.50,618.75 ZM 546.50 690.19 C548.61,690.62 554.76,689.57 555.73,688.60 C556.04,688.29 555.87,686.56 555.34,684.77 C554.68,682.53 553.85,681.59 552.70,681.79 C551.78,681.95 550.12,681.60 549.01,681.01 C547.25,680.07 547.00,678.92 547.00,671.96 L 547.00 664.00 L 550.50 664.00 C553.00,664.00 554.00,663.56 554.00,662.44 C554.00,661.58 554.45,661.16 555.00,661.50 C556.54,662.45 556.18,659.04 554.57,657.43 C553.79,656.64 551.97,656.00 550.55,656.00 C547.76,656.00 546.00,653.07 546.00,648.43 C546.00,646.26 545.57,646.00 542.00,646.00 C539.62,646.00 538.00,645.53 538.00,644.83 C538.00,642.05 536.70,645.30 536.26,649.21 C535.99,651.57 535.26,653.83 534.63,654.23 C533.94,654.69 534.27,655.00 535.50,655.05 C537.34,655.12 537.32,655.20 535.25,656.03 C532.40,657.18 532.04,662.71 534.75,663.71 C537.59,664.75 537.97,666.07 537.98,674.80 C538.00,682.80 538.12,683.22 541.25,686.43 C543.04,688.27 545.40,689.96 546.50,690.19 ZM 769.39 611.64 C767.95,612.39 764.35,613.00 761.39,613.00 L 756.00 613.00 L 756.00 583.00 L 760.53 583.00 C765.90,583.00 770.47,584.81 774.25,588.44 C776.73,590.82 777.00,591.76 777.00,597.99 C777.00,603.97 776.66,605.26 774.50,607.59 C773.13,609.07 770.83,610.89 769.39,611.64 ZM 476.23 664.80 L 475.97 690.11 L 481.23 689.80 L 486.50 689.50 L 486.77 665.75 C486.94,650.13 486.69,642.00 486.02,642.00 C485.46,642.00 485.11,641.44 485.25,640.75 C485.42,639.90 484.07,639.50 481.00,639.50 L 476.50 639.50 ZM 614.84 621.01 C615.76,622.01 617.54,622.87 618.82,622.92 C623.14,623.07 624.00,620.95 624.00,610.14 C624.00,600.53 624.10,600.06 626.63,598.07 C628.08,596.93 630.22,595.99 631.38,595.98 C632.55,595.98 633.99,595.64 634.59,595.23 C635.99,594.29 637.02,590.22 636.32,588.40 C635.63,586.58 630.29,586.60 626.77,588.44 C625.18,589.27 623.79,589.47 623.46,588.93 C622.81,587.88 617.00,587.68 614.54,588.62 C612.11,589.55 612.38,618.30 614.84,621.01 ZM 545.14 622.31 C545.04,622.75 546.78,622.98 549.01,622.81 L 553.07 622.50 L 553.28 610.80 C553.41,603.72 553.95,598.65 554.63,597.97 C555.25,597.35 557.59,596.60 559.82,596.30 C563.23,595.84 564.15,595.20 565.50,592.36 C566.38,590.50 566.83,588.53 566.49,587.99 C565.61,586.56 561.48,586.77 557.47,588.45 C555.44,589.30 554.00,589.48 554.00,588.89 C554.00,588.32 551.96,588.02 549.25,588.20 L 544.50 588.50 L 544.22 603.46 C544.07,611.68 544.25,619.11 544.63,619.96 C545.01,620.81 545.24,621.86 545.14,622.31 ZM 641.80 620.97 C644.20,623.60 648.20,623.50 649.96,620.75 C651.05,619.06 651.42,614.85 651.46,603.74 C651.46,603.11 651.46,602.51 651.46,601.94 C651.49,593.21 651.51,589.88 649.91,588.67 C648.93,587.93 647.34,588.00 644.78,588.10 C644.50,588.11 644.22,588.13 643.92,588.14 L 639.50 588.30 L 639.80 603.70 C640.05,616.51 640.38,619.41 641.80,620.97 ZM 335.68 403.09 C333.32,405.73 329.28,406.96 325.22,406.25 C322.77,405.82 317.85,401.48 318.77,400.56 C319.08,400.25 318.89,400.00 318.35,400.00 C317.80,400.00 317.39,397.98 317.43,395.50 C317.47,393.03 317.91,391.00 318.42,391.00 C318.92,391.00 319.06,390.73 318.73,390.39 C318.39,390.06 319.20,388.71 320.52,387.39 C325.67,382.24 337.25,385.48 338.56,392.45 C339.39,396.91 338.61,399.80 335.68,403.09 ZM 594.09 612.72 C592.53,613.91 588.13,614.20 584.85,613.33 C580.66,612.22 579.74,599.13 583.65,596.26 C585.74,594.72 592.92,594.87 594.59,596.48 C599.21,600.96 598.96,608.97 594.09,612.72 ZM 563.71 689.38 C564.11,689.77 565.79,689.96 567.46,689.80 L 570.50 689.50 L 571.05 656.00 L 563.00 656.00 L 563.00 672.33 C563.00,681.32 563.32,688.99 563.71,689.38 ZM 459.17 678.81 C456.99,681.32 450.48,682.35 447.28,680.70 C444.79,679.41 443.72,675.86 444.11,670.26 C444.49,664.81 445.50,664.00 451.91,664.00 C457.10,664.00 457.71,664.24 459.28,666.90 C461.53,670.70 461.47,676.15 459.17,678.81 ZM 601.72 679.09 C595.06,683.87 587.68,681.01 587.16,673.46 C586.76,667.70 589.69,664.21 595.28,663.81 C598.74,663.56 599.91,663.95 601.75,666.00 C604.89,669.49 604.87,676.83 601.72,679.09 ZM 348.48 486.43 C346.49,488.42 344.96,488.98 341.70,488.92 C336.65,488.82 334.63,486.89 334.18,481.76 C333.67,476.02 336.39,472.27 341.41,471.78 C344.77,471.45 345.95,471.84 348.04,473.94 C351.68,477.59 351.87,483.04 348.48,486.43 ZM 255.35 427.40 C254.06,429.17 252.59,429.93 250.50,429.90 C244.14,429.82 242.68,428.14 242.82,421.07 C242.89,417.25 244.48,415.87 250.00,414.85 C254.42,414.04 257.20,416.61 257.20,421.49 C257.20,423.34 256.37,426.00 255.35,427.40 ZM 301.25 589.19 C297.96,592.01 296.01,592.10 293.44,589.54 C290.90,587.00 290.64,585.95 291.60,582.36 C292.29,579.81 296.83,578.60 300.50,580.00 C302.48,580.75 303.00,581.65 303.00,584.32 C303.00,586.29 302.27,588.31 301.25,589.19 ZM 564.25 649.97 C565.49,650.47 567.01,650.90 567.63,650.94 C569.41,651.04 571.50,647.93 571.55,645.10 C571.62,641.24 569.57,639.67 565.47,640.44 C562.20,641.05 562.00,641.32 562.00,645.08 C562.00,648.28 562.44,649.24 564.25,649.97 ZM 642.13 580.29 C644.87,583.23 652.00,580.40 652.00,576.38 C652.00,572.56 642.94,570.12 641.61,573.58 C640.66,576.04 640.89,578.97 642.13,580.29 ZM 528.00 599.56 C528.00,600.69 526.37,601.00 520.50,601.00 C513.88,601.00 513.00,600.78 513.00,599.16 C513.00,597.04 516.84,595.00 520.82,595.00 C524.05,595.00 528.00,597.51 528.00,599.56 ZM 714.00 599.53 C714.00,600.69 712.44,601.00 706.50,601.00 C700.63,601.00 699.00,600.69 699.00,599.56 C699.00,597.62 702.89,595.00 705.77,595.00 C709.00,595.00 714.00,597.75 714.00,599.53 ZM 816.97 599.75 C816.99,600.63 814.95,601.00 810.00,601.00 C802.63,601.00 801.71,600.28 804.45,596.67 C807.19,593.06 816.86,595.44 816.97,599.75 ZM 641.00 586.75 C641.00,587.16 643.21,587.50 645.90,587.50 C648.60,587.50 650.60,587.16 650.35,586.75 C650.09,586.34 647.88,586.00 645.44,586.00 C643.00,586.00 641.00,586.34 641.00,586.75 Z" fill="rgb(8,41,68)"/>
<path d="M 505.00 461.99 L 505.00 427.02 L 468.25 426.76 L 431.50 426.50 L 431.23 407.25 L 430.96 388.00 L 516.00 388.00 L 516.00 353.00 L 457.08 353.00 C424.68,353.00 397.45,352.73 396.58,352.39 C395.15,351.84 395.00,360.38 395.00,444.41 L 395.00 350.98 L 516.50 351.50 L 516.77 370.25 L 517.04 389.00 L 432.50 389.00 L 432.50 425.00 L 505.78 425.00 L 506.46 427.69 C506.83,429.17 507.03,437.12 506.90,445.35 C506.71,457.91 506.45,460.40 505.00,461.99 ZM 476.23 664.80 L 476.50 639.50 L 481.00 639.50 C484.07,639.50 485.42,639.90 485.25,640.75 C485.11,641.44 485.46,642.00 486.02,642.00 C486.69,642.00 486.94,650.13 486.77,665.75 L 486.50 689.50 L 481.23 689.80 L 475.97 690.11 ZM 395.61 539.42 C395.31,538.65 395.07,505.27 395.01,462.13 C395.07,505.59 395.34,539.01 395.67,539.33 C396.03,539.70 423.26,540.00 456.17,540.00 L 516.00 540.00 L 516.00 504.16 L 431.50 504.50 L 431.23 483.25 L 430.96 462.00 L 504.99 462.00 C504.94,462.06 504.89,462.11 504.84,462.16 C503.12,463.88 500.63,464.00 468.00,464.00 L 433.00 464.00 L 433.00 502.98 L 474.75 503.24 L 516.50 503.50 L 516.77 522.25 L 517.04 541.00 L 456.63 541.00 C402.46,541.00 396.15,540.84 395.61,539.42 ZM 477.00 641.00 L 477.00 689.00 L 485.00 689.00 L 485.00 641.00 ZM 425.07 595.04 L 415.31 594.78 L 404.50 594.50 L 404.20 588.25 L 403.90 582.00 L 415.48 582.00 C423.66,582.00 426.45,581.79 427.35,580.93 C427.22,581.20 427.06,581.46 426.86,581.70 C425.71,583.13 425.71,583.26 426.90,582.54 C427.86,581.96 428.08,582.06 427.60,582.85 C427.13,583.60 423.25,584.00 416.44,584.00 L 406.00 584.00 L 406.00 593.00 L 414.57 593.00 C420.80,593.00 423.80,593.39 425.07,595.04 ZM 641.80 620.97 C640.38,619.41 640.05,616.51 639.80,603.70 L 639.50 588.30 L 642.00 588.21 L 642.00 621.00 L 649.79 621.00 C647.95,623.50 644.12,623.52 641.80,620.97 ZM 518.00 656.43 L 518.00 666.57 C518.00,672.38 517.52,678.02 516.94,679.11 C514.27,684.11 505.98,683.25 504.07,677.78 C503.86,677.18 503.67,676.09 503.50,674.70 L 504.67 655.50 L 504.59 667.16 C504.54,673.57 504.79,678.63 505.15,678.41 C505.50,678.19 506.06,678.70 506.38,679.55 C507.19,681.66 515.59,681.17 515.84,679.00 C515.94,678.17 516.02,673.45 516.02,668.51 C516.02,660.07 516.06,657.33 518.00,656.43 ZM 614.84 621.01 C612.38,618.30 612.11,589.55 614.54,588.62 C614.68,588.57 614.84,588.52 615.00,588.47 L 615.00 621.00 L 622.87 621.00 C622.10,622.57 620.83,622.99 618.82,622.92 C617.54,622.87 615.76,622.01 614.84,621.01 ZM 437.00 588.49 L 437.00 604.42 C437.00,614.97 437.24,619.65 437.91,620.96 C437.89,620.95 437.87,620.94 437.85,620.94 L 435.00 619.76 L 435.00 604.49 C435.00,604.06 435.00,603.64 435.00,603.23 C435.00,593.44 435.00,589.95 436.67,588.69 C436.78,588.62 436.88,588.55 437.00,588.49 ZM 396.16 622.25 C396.25,621.84 396.01,620.81 395.64,619.98 C395.63,619.95 395.62,619.92 395.61,619.89 C397.95,621.33 423.62,621.50 427.18,620.15 C427.10,620.30 427.02,620.47 426.93,620.64 C425.68,622.96 425.40,623.00 410.83,623.00 C402.67,623.00 396.07,622.66 396.16,622.25 ZM 404.00 613.58 L 404.00 602.07 L 414.75 601.78 L 425.50 601.50 L 425.81 598.28 L 425.86 597.73 C425.89,598.25 425.87,598.83 425.83,599.46 L 425.59 603.00 L 406.20 603.00 L 405.84 607.50 L 405.49 612.00 L 415.49 612.20 L 425.50 612.40 ZM 747.61 621.42 C747.58,621.35 747.55,621.20 747.53,621.00 L 757.35 621.00 C763.71,621.00 768.43,620.53 772.17,619.31 C772.19,619.45 772.30,619.68 772.50,620.00 C773.11,620.98 772.76,621.17 771.15,620.75 C769.97,620.44 769.21,620.53 769.48,620.96 C770.09,621.96 762.45,623.00 754.47,623.00 C749.69,623.00 748.07,622.63 747.61,621.42 ZM 497.85 590.22 C497.48,588.61 495.98,588.00 493.03,588.00 L 489.00 588.00 L 489.00 577.89 L 484.75 578.19 C480.50,578.50 480.50,578.50 480.19,582.86 C480.12,583.78 480.03,584.53 479.91,585.14 C479.97,584.58 480.00,583.90 480.00,583.06 C480.00,580.33 480.50,578.74 481.49,578.36 C482.32,578.05 482.74,577.39 482.44,576.90 C482.13,576.40 483.46,576.00 485.38,576.00 C489.52,576.00 489.82,576.37 490.14,581.82 C490.32,584.77 490.85,586.03 491.95,586.11 C492.80,586.16 494.35,586.28 495.40,586.36 C496.79,586.46 497.69,588.05 497.85,590.22 ZM 650.00 588.74 C651.51,590.00 651.49,593.36 651.46,601.94 C651.46,602.51 651.46,603.11 651.46,603.74 C651.42,614.73 651.06,618.96 650.00,620.69 ZM 538.00 644.83 C538.00,645.53 539.62,646.00 542.00,646.00 L 538.00 646.00 L 538.00 650.93 C538.00,655.28 537.74,655.90 535.75,656.18 C533.39,656.52 532.35,660.31 533.37,662.43 C532.33,660.42 533.05,656.92 535.25,656.03 C537.32,655.20 537.34,655.12 535.50,655.05 C534.27,655.00 533.94,654.69 534.63,654.23 C535.26,653.83 535.99,651.57 536.26,649.21 C536.70,645.30 538.00,642.05 538.00,644.83 ZM 786.24 594.79 C786.34,594.82 786.59,594.55 787.01,594.00 C787.89,592.84 788.05,593.99 787.71,599.00 C787.27,605.52 784.19,612.77 782.50,611.25 L 782.47 611.22 C782.90,610.59 783.31,609.92 783.73,609.22 C786.20,605.00 786.94,599.83 786.24,594.79 ZM 453.38 587.26 C451.87,587.55 450.39,588.28 448.64,589.47 C445.19,591.81 445.00,591.84 445.00,589.97 C445.00,588.34 444.31,588.00 441.00,588.00 L 439.81 588.00 C440.27,587.99 440.77,587.99 441.31,587.99 C441.48,587.99 441.65,587.99 441.83,587.98 C444.57,587.97 445.12,587.72 444.00,587.00 C443.10,586.42 442.98,586.02 443.69,586.02 C444.35,586.01 445.11,586.37 445.39,586.83 C445.67,587.28 448.29,587.50 451.20,587.31 C451.94,587.26 452.67,587.24 453.38,587.26 ZM 545.14 622.31 C545.24,621.87 545.02,620.85 544.66,620.02 C545.27,620.60 546.90,621.00 548.86,621.00 L 552.78 621.00 L 553.15 610.04 C553.28,606.40 553.55,603.10 553.88,600.86 C553.58,603.15 553.36,606.63 553.28,610.80 L 553.07 622.50 L 549.01 622.81 C546.78,622.98 545.04,622.75 545.14,622.31 ZM 782.26 611.52 C782.27,611.54 782.29,611.57 782.30,611.59 C783.75,614.15 775.42,621.00 772.82,619.39 C772.68,619.31 772.57,619.25 772.48,619.21 C776.67,617.77 779.61,615.35 782.26,611.52 ZM 460.61 621.42 C460.58,621.34 460.55,621.22 460.52,621.08 L 464.25 620.81 L 467.99 620.54 C467.92,620.72 467.84,620.86 467.75,620.95 C466.74,622.04 466.77,622.14 467.90,621.49 C468.85,620.96 469.07,621.07 468.60,621.85 C467.50,623.61 461.32,623.28 460.61,621.42 ZM 641.00 586.75 C641.00,586.34 643.00,586.00 645.44,586.00 C647.88,586.00 650.09,586.34 650.35,586.75 C650.60,587.16 648.60,587.50 645.90,587.50 C643.21,587.50 641.00,587.16 641.00,586.75 ZM 783.36 585.82 C783.51,585.78 783.72,585.67 784.02,585.49 C784.99,584.89 785.16,585.13 784.68,586.39 C784.32,587.33 784.43,587.85 784.94,587.54 C786.22,586.74 787.26,590.54 786.50,593.25 C786.34,593.84 786.23,594.25 786.20,594.50 C785.75,591.47 784.78,588.50 783.36,585.82 ZM 553.58 663.40 C553.98,662.87 554.00,661.87 554.00,660.00 C554.00,658.35 553.97,657.38 553.70,656.81 C554.05,657.00 554.35,657.21 554.57,657.43 C556.18,659.04 556.54,662.45 555.00,661.50 C554.45,661.16 554.00,661.58 554.00,662.44 C554.00,662.84 553.87,663.16 553.58,663.40 ZM 780.37 581.40 C780.61,581.57 780.66,581.44 780.44,581.00 C780.04,580.17 780.70,580.52 781.90,581.76 C783.11,583.01 783.78,584.54 783.40,585.17 C783.31,585.31 783.25,585.43 783.21,585.52 C782.40,584.04 781.45,582.65 780.37,581.40 ZM 423.01 614.16 C421.34,614.01 418.81,614.00 414.83,614.00 L 404.00 614.00 L 404.00 613.61 L 414.51 613.80 C418.66,613.88 421.28,613.96 423.01,614.16 ZM 468.57 617.89 L 468.79 610.07 C468.86,607.35 468.88,604.74 468.85,602.66 C469.18,607.39 469.08,614.01 468.57,617.89 ZM 503.32 672.96 C503.12,670.69 503.00,667.96 503.00,665.35 L 503.00 656.00 ZM 444.23 621.23 C445.91,620.65 446.00,619.51 446.00,610.44 L 446.00 620.78 ZM 427.31 577.90 C427.25,577.81 427.19,577.72 427.12,577.65 C426.51,576.91 426.33,576.01 426.70,575.63 C426.71,575.63 426.71,575.62 426.71,575.62 C426.81,575.65 426.86,575.69 426.85,575.72 C426.77,576.10 426.97,577.03 427.31,577.90 ZM 466.26 592.87 C465.32,591.65 464.07,590.47 462.75,589.59 C464.26,590.47 465.46,591.58 466.26,592.87 ZM 766.81 574.89 C768.14,574.91 769.10,574.95 769.50,574.99 C770.20,575.07 771.00,575.27 771.84,575.57 C770.59,575.17 769.19,574.97 766.81,574.89 ZM 427.68 618.53 C427.58,617.88 427.32,617.10 426.95,616.40 C426.77,616.07 426.61,615.78 426.43,615.54 C426.58,615.72 426.72,615.92 426.85,616.14 C427.46,617.10 427.73,617.79 427.68,618.53 ZM 546.00 648.43 C546.00,651.20 546.63,653.36 547.73,654.65 C546.59,653.41 546.00,651.31 546.00,648.43 ZM 620.66 588.09 C622.07,588.21 623.19,588.50 623.46,588.93 C623.23,588.56 622.10,588.24 620.66,588.09 ZM 413.76 575.19 C413.01,575.20 412.23,575.21 411.44,575.22 L 395.50 575.50 L 411.26 575.22 C412.11,575.21 412.95,575.20 413.76,575.19 ZM 496.55 595.44 C497.00,595.11 497.27,594.62 497.49,593.88 C497.29,594.61 497.02,595.11 496.55,595.44 ZM 534.75 663.71 C534.73,663.70 534.71,663.69 534.69,663.69 C534.75,663.71 534.80,663.73 534.86,663.75 C534.82,663.74 534.79,663.72 534.75,663.71 Z" fill="rgb(6,22,40)"/>
<path d="M 263.50 699.42 C232.71,694.66 208.41,681.96 186.99,659.41 C170.68,642.24 159.20,619.46 154.57,595.07 C152.22,582.68 152.23,444.94 154.58,430.93 C157.76,411.97 166.62,390.57 177.19,376.27 C198.70,347.18 232.87,328.10 268.35,325.37 C275.03,324.86 277.21,325.06 279.87,326.43 C284.20,328.67 286.26,333.48 284.94,338.26 C283.52,343.41 280.49,344.87 268.77,346.06 C249.68,348.00 229.24,356.51 213.64,369.01 C192.93,385.59 178.21,413.21 175.07,441.33 C173.64,454.15 173.64,571.85 175.07,584.67 C179.66,625.83 208.01,660.75 247.50,673.88 C260.29,678.13 274.72,680.00 294.80,680.00 C311.57,680.00 311.89,680.04 314.85,682.53 C318.65,685.72 319.57,689.71 317.59,694.43 C315.15,700.28 312.09,701.02 290.78,700.90 C280.70,700.85 268.46,700.18 263.50,699.42 Z" fill="rgb(65,161,220)"/>
<path d="M 448.12 690.00 C443.25,688.85 439.89,686.02 436.73,680.42 C434.81,677.01 434.10,674.58 434.43,672.50 C435.50,665.74 436.27,663.00 437.11,663.00 C437.60,663.00 438.00,662.30 438.00,661.45 C438.00,659.52 447.41,655.02 451.50,655.00 C456.81,654.98 464.09,658.25 466.89,661.92 C469.14,664.87 469.50,666.33 469.50,672.42 C469.50,678.29 469.09,680.07 467.10,682.86 C464.91,685.93 459.78,689.01 456.00,689.54 C455.17,689.65 453.83,689.98 453.00,690.27 C452.17,690.56 449.98,690.43 448.12,690.00 ZM 459.17 678.81 C461.47,676.15 461.53,670.70 459.28,666.90 C457.71,664.24 457.10,664.00 451.91,664.00 C445.50,664.00 444.49,664.81 444.11,670.26 C443.72,675.86 444.79,679.41 447.28,680.70 C450.48,682.35 456.99,681.32 459.17,678.81 ZM 504.75 690.32 C503.79,690.06 503.00,689.49 503.00,689.04 C503.00,688.60 502.10,688.00 500.99,687.71 C497.10,686.69 495.05,679.65 495.02,667.25 L 495.00 656.00 L 499.00 656.00 L 503.00 656.00 L 503.00 665.35 C503.00,670.49 503.48,676.09 504.07,677.78 C505.98,683.25 514.27,684.11 516.94,679.11 C517.52,678.02 518.00,672.38 518.00,666.57 L 518.00 656.00 L 522.50 656.00 L 527.00 656.00 L 527.00 671.80 C527.00,682.76 526.63,687.97 525.80,688.80 C524.18,690.42 520.37,690.32 518.79,688.61 C517.73,687.46 517.06,687.44 515.00,688.49 C511.88,690.07 507.06,690.94 504.75,690.32 ZM 546.50 690.19 C545.40,689.96 543.04,688.27 541.25,686.43 C538.12,683.22 538.00,682.80 537.98,674.80 C537.97,666.03 537.59,664.76 534.69,663.68 C531.89,662.65 532.74,656.61 535.75,656.18 C537.74,655.90 538.00,655.28 538.00,650.93 L 538.00 646.00 L 542.00 646.00 C545.57,646.00 546.00,646.26 546.00,648.43 C546.00,653.36 547.73,656.00 550.98,656.00 C553.84,656.00 554.00,656.21 554.00,660.00 C554.00,663.90 553.92,664.00 550.50,664.00 L 547.00 664.00 L 547.00 671.96 C547.00,678.92 547.25,680.07 549.01,681.01 C550.12,681.60 551.78,681.95 552.70,681.79 C553.85,681.59 554.68,682.53 555.34,684.77 C555.87,686.56 556.04,688.29 555.73,688.60 C554.76,689.57 548.61,690.62 546.50,690.19 ZM 591.75 690.28 C590.24,690.05 589.00,689.42 589.00,688.87 C589.00,688.33 588.55,688.16 588.00,688.50 C587.45,688.84 587.00,688.75 587.00,688.30 C587.00,687.84 586.02,687.03 584.83,686.49 C580.31,684.43 578.50,680.41 578.54,672.55 C578.58,665.96 578.86,664.92 581.54,661.72 C588.08,653.91 599.86,652.79 607.06,659.29 C610.17,662.10 612.13,664.98 612.41,667.17 C612.46,667.53 612.84,668.17 613.25,668.58 C614.33,669.67 614.17,675.77 613.04,676.47 C612.52,676.80 612.30,677.61 612.55,678.28 C613.08,679.69 606.89,687.00 605.16,687.00 C604.52,687.00 604.00,687.45 604.00,688.00 C604.00,688.55 602.68,689.00 601.06,689.00 C599.44,689.00 597.84,689.45 597.50,690.00 C597.16,690.55 596.35,690.93 595.69,690.85 C595.04,690.77 593.26,690.51 591.75,690.28 ZM 601.72 679.09 C604.87,676.83 604.89,669.49 601.75,666.00 C599.91,663.95 598.74,663.56 595.28,663.81 C589.69,664.21 586.76,667.70 587.16,673.46 C587.68,681.01 595.06,683.87 601.72,679.09 ZM 667.75 690.36 C666.79,690.08 666.00,689.40 666.00,688.84 C666.00,688.29 665.44,688.02 664.76,688.25 C664.08,688.47 662.96,688.10 662.28,687.42 C661.59,686.74 660.52,686.01 659.89,685.80 C658.02,685.17 659.80,681.41 662.55,680.16 C664.56,679.24 665.17,679.29 665.60,680.41 C666.33,682.29 672.49,683.34 674.99,682.01 C677.76,680.52 677.51,678.17 674.50,677.41 C673.12,677.07 672.00,676.33 672.00,675.78 C672.00,675.24 671.33,675.05 670.50,675.36 C669.67,675.68 669.00,675.48 669.00,674.92 C669.00,674.37 668.44,673.99 667.75,674.07 C665.01,674.43 664.08,673.86 662.08,670.63 C658.98,665.61 659.35,661.56 663.25,658.02 C666.91,654.68 672.19,654.08 679.24,656.19 C684.29,657.70 684.97,659.54 681.64,662.63 C680.19,663.98 679.00,664.59 679.00,663.99 C679.00,662.47 668.77,663.15 668.26,664.71 C668.03,665.41 670.72,667.19 674.68,668.95 C683.30,672.77 684.56,673.56 684.25,674.91 C684.11,675.51 684.45,676.00 685.00,676.00 C686.36,676.00 686.26,681.33 684.84,684.45 C684.20,685.85 683.11,687.00 682.41,687.00 C681.71,687.00 680.46,687.68 679.63,688.51 C678.05,690.09 670.75,691.23 667.75,690.36 ZM 400.50 688.15 C393.80,684.96 392.55,680.65 397.56,677.97 C399.73,676.81 400.27,676.91 402.35,678.86 C403.85,680.27 406.55,681.28 409.86,681.67 C414.44,682.21 415.25,682.02 417.06,679.93 C418.24,678.57 418.97,676.52 418.80,675.05 C418.54,672.88 417.69,672.29 413.00,671.07 C409.98,670.28 407.21,669.21 406.86,668.69 C406.51,668.17 405.83,667.99 405.35,668.28 C403.19,669.62 395.89,662.77 394.78,658.37 C394.24,656.22 395.84,648.55 397.30,646.28 C399.36,643.07 410.35,640.53 417.29,641.66 C419.25,641.98 422.36,643.49 424.18,645.03 L 427.50 647.82 L 424.56 650.91 C422.55,653.03 421.39,653.63 420.89,652.82 C419.28,650.21 407.93,649.22 405.66,651.49 C402.14,655.01 404.46,659.31 410.50,660.43 C412.70,660.84 414.95,661.51 415.50,661.92 C416.05,662.33 418.08,663.29 420.00,664.06 C421.92,664.82 424.70,666.67 426.16,668.16 C428.40,670.45 428.78,671.65 428.59,675.83 C428.35,681.03 426.06,685.68 423.19,686.73 C422.26,687.07 421.23,687.76 420.90,688.25 C420.56,688.74 416.74,689.35 412.40,689.60 C406.03,689.97 403.72,689.69 400.50,688.15 ZM 563.71 689.38 C563.32,688.99 563.00,681.32 563.00,672.33 L 563.00 656.00 L 567.02 656.00 L 571.05 656.00 L 570.77 672.75 L 570.50 689.50 L 567.46 689.80 C565.79,689.96 564.11,689.77 563.71,689.38 ZM 620.85 689.07 C620.66,688.50 620.63,680.76 620.80,671.88 L 621.10 655.73 L 627.05 656.27 C630.33,656.57 633.00,656.40 633.00,655.91 C633.00,655.41 635.41,655.00 638.35,655.00 C642.91,655.00 644.16,655.44 646.79,657.95 C648.49,659.57 650.30,661.71 650.82,662.70 C651.34,663.69 651.70,670.12 651.63,677.00 L 651.50 689.50 L 648.69 689.82 C643.70,690.39 643.00,688.84 642.98,677.13 C642.98,671.28 642.60,665.92 642.15,665.21 C640.65,662.84 634.71,662.61 631.98,664.82 C629.67,666.68 629.47,667.60 629.00,678.16 L 628.50 689.50 L 624.85 689.80 C622.84,689.97 621.04,689.64 620.85,689.07 ZM 477.00 665.00 L 477.00 641.00 L 481.00 641.00 L 485.00 641.00 L 485.00 665.00 L 485.00 689.00 L 481.00 689.00 L 477.00 689.00 L 477.00 665.00 ZM 564.25 649.97 C562.44,649.24 562.00,648.28 562.00,645.08 C562.00,641.32 562.20,641.05 565.47,640.44 C569.57,639.67 571.62,641.24 571.55,645.10 C571.50,647.93 569.41,651.04 567.63,650.94 C567.01,650.90 565.49,650.47 564.25,649.97 ZM 260.84 630.07 C251.20,620.41 242.57,611.39 241.66,610.03 C240.18,607.82 240.00,602.99 240.00,564.86 L 240.00 522.17 L 249.75 511.86 C255.11,506.19 262.66,498.39 266.52,494.52 C270.38,490.66 276.34,484.31 279.77,480.41 L 286.00 473.33 L 286.00 455.32 C286.00,435.08 287.00,429.83 291.84,424.68 C302.45,413.40 305.00,410.51 305.00,409.77 C305.00,409.31 304.28,407.26 303.41,405.22 C300.94,399.45 301.35,390.48 304.38,384.33 C312.90,367.03 333.04,363.46 346.61,376.85 C348.47,378.69 350.00,380.61 350.00,381.10 C350.00,381.60 350.48,382.00 351.06,382.00 C351.64,382.00 351.84,382.45 351.50,383.00 C351.16,383.55 351.39,384.00 352.00,384.00 C352.61,384.00 352.84,384.45 352.50,385.00 C352.16,385.55 352.41,386.00 353.05,386.00 C353.69,386.00 353.96,386.66 353.65,387.47 C353.34,388.28 353.52,389.20 354.04,389.53 C356.50,391.04 353.55,409.00 350.85,409.00 C350.32,409.00 350.12,409.38 350.41,409.85 C351.13,411.02 344.43,416.86 339.00,419.79 C333.81,422.59 323.16,423.28 319.10,421.08 C317.00,419.93 316.58,420.00 315.67,421.64 C315.10,422.66 313.17,425.08 311.39,427.00 C309.61,428.92 306.52,432.26 304.52,434.40 L 300.90 438.30 L 301.00 457.90 C301.06,468.68 301.09,478.34 301.06,479.37 C301.03,480.40 297.20,485.02 292.56,489.64 C287.92,494.26 283.86,498.82 283.54,499.77 C283.23,500.72 281.20,502.81 279.03,504.41 C276.87,506.00 272.85,510.08 270.10,513.47 C267.35,516.86 262.83,521.76 260.05,524.36 L 255.00 529.08 L 255.00 565.39 L 255.00 601.70 L 260.18 607.60 C263.03,610.85 270.49,618.58 276.76,624.79 C286.36,634.30 288.21,636.63 288.48,639.55 C288.92,644.25 286.30,647.38 281.80,647.53 C278.61,647.64 277.02,646.31 260.84,630.07 ZM 335.68 403.09 C338.61,399.80 339.39,396.91 338.56,392.45 C337.25,385.48 325.67,382.24 320.52,387.39 C319.20,388.71 318.39,390.06 318.73,390.39 C319.06,390.73 318.92,391.00 318.42,391.00 C317.91,391.00 317.47,393.03 317.43,395.50 C317.39,397.98 317.80,400.00 318.35,400.00 C318.89,400.00 319.08,400.25 318.77,400.56 C317.85,401.48 322.77,405.82 325.22,406.25 C329.28,406.96 333.32,405.73 335.68,403.09 ZM 572.49 633.75 C572.18,632.51 572.06,621.83 572.22,610.00 L 572.50 588.50 L 577.50 588.41 C580.25,588.37 585.12,587.97 588.33,587.54 C592.63,586.96 594.85,587.11 596.76,588.12 C599.54,589.59 605.92,595.74 606.12,597.15 C606.19,597.62 606.31,598.41 606.38,598.92 C606.44,599.42 606.84,600.17 607.25,600.58 C608.95,602.29 607.41,612.30 605.19,613.98 C604.81,614.27 604.02,615.40 603.44,616.50 C601.34,620.44 588.00,625.24 588.00,622.06 C588.00,621.55 587.21,621.16 586.25,621.20 C585.29,621.23 583.71,620.93 582.75,620.53 C581.17,619.86 581.00,620.53 581.00,627.29 C581.00,635.29 580.55,636.00 575.44,636.00 C573.78,636.00 572.87,635.30 572.49,633.75 ZM 594.09 612.72 C598.96,608.97 599.21,600.96 594.59,596.48 C592.92,594.87 585.74,594.72 583.65,596.26 C579.74,599.13 580.66,612.22 584.85,613.33 C588.13,614.20 592.53,613.91 594.09,612.72 ZM 488.25 622.30 C487.01,622.06 486.00,621.44 486.00,620.93 C486.00,620.42 485.47,620.11 484.83,620.25 C482.38,620.77 481.03,615.52 481.01,605.39 L 481.00 595.28 L 478.50 595.76 C476.17,596.20 476.00,595.96 476.00,592.23 C476.00,589.12 476.43,588.12 477.94,587.73 C479.41,587.34 479.95,586.18 480.19,582.86 C480.50,578.50 480.50,578.50 484.75,578.19 L 489.00 577.89 L 489.00 582.94 L 489.00 588.00 L 493.03 588.00 C497.48,588.00 498.62,589.38 497.59,593.50 C497.07,595.57 496.36,596.00 493.44,596.00 L 489.92 596.00 L 490.21 604.75 L 490.50 613.50 L 493.67 613.81 C496.14,614.05 497.07,614.76 497.85,617.00 C498.57,619.07 498.52,620.14 497.68,620.82 C496.13,622.07 491.08,622.86 488.25,622.30 ZM 518.00 622.01 C518.00,621.33 517.33,621.04 516.50,621.36 C515.67,621.68 515.00,621.45 515.00,620.86 C515.00,620.27 514.33,620.05 513.50,620.36 C512.67,620.68 512.00,620.55 512.00,620.09 C512.00,619.62 511.14,619.01 510.08,618.73 C507.96,618.18 504.64,612.33 503.54,607.22 C502.58,602.77 505.57,593.48 508.78,590.96 C515.25,585.87 526.11,586.06 531.56,591.36 C533.37,593.12 535.00,595.22 535.18,596.03 C535.35,596.84 535.84,597.75 536.26,598.06 C536.68,598.37 537.13,600.40 537.26,602.56 L 537.50 606.50 L 525.25 606.78 C513.04,607.06 511.70,607.51 513.77,610.60 C516.05,614.03 524.89,615.17 528.67,612.52 C530.58,611.18 531.04,611.24 533.44,613.13 L 536.11 615.23 L 532.87 618.11 C531.09,619.70 529.38,621.04 529.07,621.08 C528.50,621.17 527.33,621.39 521.25,622.59 C519.01,623.03 518.00,622.85 518.00,622.01 ZM 528.00 599.56 C528.00,597.51 524.05,595.00 520.82,595.00 C516.84,595.00 513.00,597.04 513.00,599.16 C513.00,600.78 513.88,601.00 520.50,601.00 C526.37,601.00 528.00,600.69 528.00,599.56 ZM 667.00 622.10 C667.00,621.44 666.44,621.02 665.75,621.15 C663.36,621.61 660.31,619.95 658.98,617.45 C657.81,615.28 657.85,614.72 659.27,613.30 C660.79,611.78 661.20,611.79 664.85,613.43 C667.44,614.60 669.81,614.98 671.81,614.54 C677.45,613.30 676.46,609.64 670.15,608.38 C668.42,608.03 667.00,607.34 667.00,606.83 C667.00,606.33 666.44,606.03 665.75,606.17 C661.35,607.06 657.69,600.47 659.09,594.17 C660.02,589.99 659.94,590.05 666.09,587.97 C670.60,586.44 671.81,586.40 676.25,587.57 C683.07,589.36 683.70,590.20 681.05,593.92 C678.97,596.85 677.00,597.95 677.00,596.19 C677.00,594.90 668.25,594.78 667.47,596.05 C666.51,597.60 668.65,599.38 673.92,601.41 C680.90,604.11 683.31,606.49 683.74,611.12 C684.15,615.47 682.01,620.00 679.56,620.00 C678.79,620.00 678.01,620.46 677.83,621.02 C677.32,622.55 667.00,623.58 667.00,622.10 ZM 705.00 621.89 C705.00,621.21 704.04,621.02 702.50,621.41 C700.99,621.79 700.00,621.61 700.00,620.96 C700.00,620.37 699.55,620.16 699.00,620.50 C698.45,620.84 698.00,620.64 698.00,620.06 C698.00,619.48 697.66,619.11 697.25,619.25 C696.84,619.39 695.57,618.57 694.44,617.44 C690.13,613.13 689.00,610.61 689.10,605.53 C689.24,598.66 689.93,596.79 694.07,592.20 C697.03,588.91 698.51,588.12 702.71,587.54 C705.49,587.16 709.42,587.30 711.42,587.85 C715.23,588.90 719.95,592.66 719.98,594.67 C719.99,595.31 720.44,595.98 720.97,596.17 C722.04,596.53 722.40,598.82 722.16,603.75 L 722.00 607.00 L 710.62 607.00 C700.54,607.00 699.18,607.20 698.77,608.78 C698.04,611.57 700.82,613.32 706.79,613.82 C711.14,614.18 712.46,613.93 713.18,612.64 C714.94,609.49 720.02,611.52 720.62,615.61 C720.89,617.45 717.39,619.84 713.27,620.61 C711.46,620.95 709.73,621.63 709.43,622.11 C708.64,623.39 705.00,623.21 705.00,621.89 ZM 714.00 599.53 C714.00,597.75 709.00,595.00 705.77,595.00 C702.89,595.00 699.00,597.62 699.00,599.56 C699.00,600.69 700.63,601.00 706.50,601.00 C712.44,601.00 714.00,600.69 714.00,599.53 ZM 806.25 622.33 C805.01,622.07 804.00,621.42 804.00,620.87 C804.00,620.33 803.55,620.16 803.00,620.50 C802.45,620.84 802.00,620.64 802.00,620.06 C802.00,619.48 801.64,619.11 801.20,619.25 C799.75,619.70 794.41,612.58 793.26,608.66 C791.59,602.99 794.07,596.11 799.64,590.98 C803.48,587.43 804.51,587.00 809.01,587.00 C811.79,587.00 815.51,587.61 817.28,588.36 C820.50,589.72 825.12,593.99 823.40,594.02 C822.91,594.02 823.09,594.41 823.82,594.87 C824.54,595.32 825.26,596.33 825.42,597.10 C825.57,597.87 826.04,599.29 826.46,600.25 C826.87,601.22 826.93,603.13 826.59,604.50 C825.96,606.99 825.93,607.00 813.94,607.00 C803.04,607.00 801.94,607.16 802.21,608.75 C802.74,611.91 805.13,613.35 810.65,613.80 C815.25,614.19 816.46,613.91 818.42,612.08 L 820.74 609.90 L 822.78 613.11 C824.47,615.80 824.59,616.55 823.48,617.67 C822.74,618.40 821.69,619.00 821.14,619.00 C820.59,619.00 819.51,619.64 818.73,620.42 C817.19,621.96 809.85,623.08 806.25,622.33 ZM 816.97 599.75 C816.86,595.44 807.19,593.06 804.45,596.67 C801.71,600.28 802.63,601.00 810.00,601.00 C814.95,601.00 816.99,600.63 816.97,599.75 ZM 438.25 621.34 C437.32,620.96 437.00,616.61 437.00,604.42 L 437.00 588.00 L 441.00 588.00 C444.31,588.00 445.00,588.34 445.00,589.97 C445.00,591.84 445.19,591.81 448.64,589.47 C452.86,586.61 455.47,586.41 460.78,588.53 C464.03,589.83 467.51,593.58 467.94,596.24 C468.00,596.65 468.28,597.58 468.56,598.31 C468.84,599.04 468.94,604.33 468.79,610.07 L 468.50 620.50 L 464.25 620.81 L 460.00 621.11 L 459.99 610.81 C459.97,597.66 459.05,595.65 452.92,595.20 C448.85,594.91 448.26,595.14 447.19,597.48 C446.52,598.96 446.00,604.57 446.00,610.43 C446.00,620.30 445.90,620.79 443.75,621.37 C441.18,622.06 440.02,622.05 438.25,621.34 ZM 841.50 618.75 C840.59,616.96 839.16,613.47 838.32,611.00 C837.48,608.53 835.66,604.03 834.29,601.00 C829.77,591.00 829.00,589.20 829.00,588.60 C829.00,587.56 838.99,587.95 839.12,589.00 C839.28,590.28 839.68,591.86 840.00,592.50 C840.14,592.78 840.32,593.34 840.41,593.75 C840.50,594.16 841.12,595.48 841.78,596.67 C842.45,597.87 843.15,599.67 843.34,600.67 C843.94,603.76 845.91,608.00 846.75,608.00 C847.95,608.00 850.68,602.31 853.11,594.75 L 855.28 588.00 L 860.00 588.00 C864.50,588.00 864.70,588.12 864.24,590.50 C863.98,591.88 863.29,593.00 862.72,593.00 C862.14,593.00 861.97,593.30 862.34,593.67 C862.71,594.04 862.32,595.39 861.48,596.67 C860.64,597.95 860.24,599.00 860.59,599.00 C860.94,599.00 860.49,600.12 859.59,601.50 C858.69,602.88 858.16,604.00 858.42,604.00 C859.27,604.00 852.98,618.37 851.32,620.20 C850.38,621.23 848.30,622.00 846.42,622.00 C843.73,622.00 842.85,621.42 841.50,618.75 ZM 395.45 619.73 C395.18,619.02 395.08,608.79 395.23,596.98 L 395.50 575.50 L 411.44 575.22 C420.21,575.07 427.08,575.26 426.70,575.63 C426.33,576.01 426.51,576.91 427.12,577.65 C427.73,578.38 427.96,579.66 427.64,580.49 C427.17,581.72 424.90,582.00 415.48,582.00 L 403.90 582.00 L 404.20 588.25 L 404.50 594.50 L 415.31 594.78 L 426.12 595.07 L 425.81 598.28 L 425.50 601.50 L 414.75 601.78 L 404.00 602.07 L 404.00 608.03 L 404.00 614.00 L 414.83 614.00 C425.25,614.00 425.71,614.09 426.95,616.40 C427.66,617.73 427.93,619.30 427.56,619.90 C426.53,621.57 396.09,621.40 395.45,619.73 ZM 544.44 619.71 C544.17,618.99 544.07,611.68 544.22,603.46 L 544.50 588.50 L 549.25 588.20 C551.96,588.02 554.00,588.32 554.00,588.89 C554.00,589.48 555.44,589.30 557.47,588.45 C561.48,586.77 565.61,586.56 566.49,587.99 C566.83,588.53 566.38,590.50 565.50,592.36 C564.15,595.20 563.23,595.84 559.82,596.30 C557.59,596.60 555.26,597.34 554.64,597.96 C554.01,598.59 553.37,603.82 553.15,610.04 L 552.78 621.00 L 548.86 621.00 C546.57,621.00 544.73,620.46 544.44,619.71 ZM 615.00 604.50 L 615.00 588.00 L 618.94 588.00 C621.11,588.00 623.14,588.42 623.46,588.93 C623.79,589.47 625.18,589.27 626.77,588.44 C630.29,586.60 635.63,586.58 636.32,588.40 C637.02,590.22 635.99,594.29 634.59,595.23 C633.99,595.64 632.55,595.98 631.38,595.98 C630.22,595.99 628.08,596.93 626.63,598.07 C624.09,600.07 624.00,600.50 624.00,610.57 L 624.00 621.00 L 619.50 621.00 L 615.00 621.00 L 615.00 604.50 ZM 642.00 604.50 L 642.00 588.00 L 646.00 588.00 L 650.00 588.00 L 650.00 604.50 L 650.00 621.00 L 646.00 621.00 L 642.00 621.00 L 642.00 604.50 ZM 747.00 598.00 L 747.00 575.00 L 757.25 574.88 C769.87,574.74 770.77,574.84 774.50,576.72 C785.22,582.14 789.92,598.68 783.73,609.22 C778.35,618.36 772.45,621.00 757.35,621.00 L 747.00 621.00 L 747.00 598.00 ZM 769.39 611.64 C770.83,610.89 773.13,609.07 774.50,607.59 C776.66,605.26 777.00,603.97 777.00,597.99 C777.00,591.76 776.73,590.82 774.25,588.44 C770.47,584.81 765.90,583.00 760.53,583.00 L 756.00 583.00 L 756.00 598.00 L 756.00 613.00 L 761.39 613.00 C764.35,613.00 767.95,612.39 769.39,611.64 ZM 290.60 605.58 C288.45,604.78 286.43,603.73 286.10,603.24 C285.77,602.75 284.77,602.09 283.88,601.76 C282.99,601.43 281.03,598.99 279.52,596.33 C277.28,592.38 276.81,590.38 276.92,585.32 C277.08,578.44 280.48,570.88 284.34,568.82 C285.53,568.19 286.96,567.05 287.52,566.29 C288.11,565.50 288.65,557.11 288.79,546.70 C289.15,520.20 288.34,522.58 301.27,509.78 C307.35,503.76 313.96,496.85 315.96,494.42 L 319.61 490.01 L 318.64 483.52 C317.82,477.99 317.95,476.42 319.54,472.77 C322.04,467.02 326.22,461.05 327.75,461.02 C328.44,461.01 329.00,460.66 329.00,460.24 C329.00,458.65 337.21,456.00 342.11,456.00 C347.55,456.00 355.48,459.27 359.85,463.32 C362.31,465.61 365.51,471.00 364.40,471.00 C364.05,471.00 364.37,471.74 365.13,472.65 C367.08,475.01 366.77,485.68 364.62,489.80 C362.94,493.02 360.49,496.35 358.50,498.14 C354.62,501.61 352.46,503.00 350.91,503.00 C349.92,503.00 348.84,503.45 348.50,504.00 C347.76,505.20 336.00,504.88 336.00,503.67 C336.00,503.21 335.44,503.04 334.75,503.28 C334.06,503.53 332.76,503.35 331.85,502.89 C330.66,502.27 329.52,502.79 327.70,504.77 C326.33,506.27 321.20,511.55 316.32,516.50 C303.36,529.63 304.00,528.01 304.00,547.90 L 304.00 564.87 L 308.25 567.71 C310.59,569.27 312.94,571.55 313.49,572.77 C314.03,574.00 314.84,575.00 315.30,575.00 C315.75,575.00 315.84,575.45 315.50,576.00 C315.16,576.55 315.39,577.00 316.00,577.00 C316.61,577.00 316.86,577.42 316.54,577.93 C316.23,578.44 316.36,579.10 316.83,579.40 C318.06,580.15 317.35,593.38 316.06,593.81 C315.47,594.01 315.24,594.58 315.55,595.09 C315.86,595.59 315.71,596.00 315.22,596.00 C314.73,596.00 313.82,597.09 313.22,598.43 C311.72,601.70 304.33,605.88 298.92,606.50 C296.28,606.81 292.93,606.44 290.60,605.58 ZM 301.25 589.19 C302.27,588.31 303.00,586.29 303.00,584.32 C303.00,581.65 302.48,580.75 300.50,580.00 C296.83,578.60 292.29,579.81 291.60,582.36 C290.64,585.95 290.90,587.00 293.44,589.54 C296.01,592.10 297.96,592.01 301.25,589.19 ZM 348.48 486.43 C351.87,483.04 351.68,477.59 348.04,473.94 C345.95,471.84 344.77,471.45 341.41,471.78 C336.39,472.27 333.67,476.02 334.18,481.76 C334.63,486.89 336.65,488.82 341.70,488.92 C344.96,488.98 346.49,488.42 348.48,486.43 ZM 202.94 603.75 C201.77,602.51 200.40,600.46 199.90,599.18 C198.54,595.70 198.75,510.88 200.13,505.39 C201.12,501.46 203.82,498.28 221.54,480.16 L 241.81 459.42 L 242.09 451.46 C242.30,445.70 242.05,443.57 241.19,443.75 C240.54,443.89 240.00,443.48 240.00,442.83 C240.00,442.19 239.71,441.95 239.36,442.30 C237.98,443.69 232.78,438.51 229.97,432.94 C226.64,426.34 226.04,419.19 228.37,413.72 C229.77,410.42 236.41,403.00 237.96,403.00 C238.44,403.00 239.01,402.46 239.23,401.81 C239.82,400.04 252.26,399.53 257.71,401.06 C262.61,402.43 269.00,407.27 269.00,409.60 C269.00,410.37 269.48,411.00 270.06,411.00 C270.64,411.00 270.84,411.45 270.50,412.00 C270.16,412.55 270.41,413.00 271.05,413.00 C271.69,413.00 271.95,413.67 271.64,414.50 C271.32,415.33 271.41,416.00 271.83,416.00 C272.47,416.00 272.57,427.36 271.95,429.00 C271.85,429.27 271.82,429.84 271.88,430.25 C271.95,430.66 271.52,431.00 270.94,431.00 C270.36,431.00 270.16,431.45 270.50,432.00 C270.84,432.55 270.64,433.00 270.06,433.00 C269.48,433.00 269.10,433.34 269.23,433.75 C269.49,434.60 260.00,444.00 258.89,444.00 C258.49,444.00 258.02,449.06 257.83,455.25 L 257.49 466.50 L 254.00 470.41 C252.07,472.56 249.38,475.23 248.00,476.35 C246.62,477.47 238.65,485.39 230.28,493.94 L 215.05 509.50 L 214.88 553.75 C214.78,578.09 214.66,598.56 214.61,599.25 C214.46,601.28 209.18,606.00 207.05,606.00 C205.96,606.00 204.12,604.99 202.94,603.75 ZM 255.35 427.40 C256.37,426.00 257.20,423.34 257.20,421.49 C257.20,416.61 254.42,414.04 250.00,414.85 C244.48,415.87 242.89,417.25 242.82,421.07 C242.68,428.14 244.14,429.82 250.50,429.90 C252.59,429.93 254.06,429.17 255.35,427.40 ZM 642.13 580.29 C640.89,578.97 640.66,576.04 641.61,573.58 C642.94,570.12 652.00,572.56 652.00,576.38 C652.00,580.40 644.87,583.23 642.13,580.29 ZM 779.57 541.11 C779.11,540.36 777.60,540.17 775.42,540.58 C773.05,541.03 772.00,540.85 772.00,540.00 C772.00,539.31 771.33,539.04 770.43,539.39 C768.46,540.14 756.00,537.08 756.00,535.83 C756.00,535.33 755.44,535.04 754.75,535.20 C752.93,535.62 745.00,532.84 745.00,531.78 C745.00,531.29 744.55,531.16 744.00,531.50 C743.45,531.84 743.00,531.61 743.00,531.00 C743.00,530.39 742.59,530.14 742.08,530.45 C741.57,530.76 740.50,530.36 739.70,529.56 C738.90,528.75 737.96,528.37 737.62,528.71 C737.28,529.05 737.00,528.78 737.00,528.11 C737.00,527.43 736.61,527.13 736.13,527.42 C735.65,527.72 734.05,526.85 732.57,525.48 C731.10,524.12 729.52,523.00 729.06,523.00 C728.59,523.00 727.95,522.33 727.64,521.50 C727.32,520.67 726.38,520.00 725.55,520.00 C723.85,520.00 722.24,515.14 723.61,514.14 C724.53,513.48 725.81,511.61 728.78,506.59 C729.73,504.99 731.29,502.86 732.25,501.84 C733.21,500.83 734.00,499.76 734.00,499.46 C734.00,499.16 734.90,497.95 736.00,496.77 C737.10,495.59 738.56,493.35 739.25,491.80 C739.94,490.25 741.26,488.73 742.19,488.44 C743.87,487.91 752.00,492.54 752.00,494.02 C752.00,494.44 753.12,495.07 754.50,495.41 C755.88,495.76 757.00,496.48 757.00,497.02 C757.00,497.56 757.84,498.00 758.88,498.00 C759.91,498.00 761.32,498.67 762.00,499.50 C762.68,500.33 763.98,501.00 764.87,501.01 C765.77,501.01 767.67,501.62 769.11,502.37 C773.95,504.90 782.46,506.33 792.50,506.30 C802.91,506.26 813.67,504.13 815.14,501.80 C815.60,501.09 815.98,500.91 815.98,501.40 C816.02,503.20 819.99,498.65 821.97,494.55 C824.30,489.76 824.50,486.40 822.81,480.75 C821.76,477.26 817.25,471.41 815.21,470.90 C812.01,470.10 809.00,468.65 809.00,467.90 C809.00,467.41 808.66,467.10 808.25,467.22 C806.81,467.66 798.00,464.73 798.00,463.83 C798.00,463.32 797.44,463.02 796.75,463.16 C794.42,463.61 788.00,461.92 788.00,460.85 C788.00,460.26 787.34,460.04 786.54,460.35 C785.06,460.91 775.92,458.26 775.00,456.99 C774.72,456.61 773.73,456.31 772.79,456.32 C770.39,456.34 759.00,451.71 759.00,450.71 C759.00,450.25 758.55,450.16 758.00,450.50 C757.45,450.84 757.00,450.61 757.00,450.00 C757.00,449.39 756.55,449.16 756.00,449.50 C755.45,449.84 755.00,449.61 755.00,449.00 C755.00,448.39 754.55,448.16 754.00,448.50 C753.45,448.84 753.00,448.64 753.00,448.06 C753.00,447.48 752.33,447.00 751.50,447.00 C750.67,447.00 749.10,446.10 748.00,445.00 C746.90,443.90 745.64,443.00 745.20,443.00 C743.94,443.00 738.66,437.00 735.26,431.72 C731.17,425.35 728.73,414.20 729.26,404.22 C729.65,396.71 731.84,385.01 733.04,384.00 C733.37,383.73 734.43,381.48 735.41,379.00 C736.38,376.52 737.93,373.71 738.84,372.75 C748.97,362.04 755.89,357.22 765.00,354.55 C768.58,353.51 772.01,352.26 772.64,351.79 C773.27,351.32 778.93,350.43 785.21,349.82 C796.66,348.69 804.09,349.20 817.50,352.03 C820.25,352.61 823.85,353.35 825.50,353.67 C827.15,353.99 828.95,354.59 829.50,355.01 C830.05,355.43 831.96,356.08 833.75,356.46 C835.54,356.85 837.00,357.57 837.00,358.08 C837.00,358.59 838.07,359.00 839.38,359.00 C840.69,359.00 842.30,359.65 842.96,360.45 C843.62,361.25 845.70,362.41 847.58,363.03 C849.46,363.65 851.00,364.57 851.00,365.08 C851.00,365.58 851.48,366.00 852.07,366.00 C852.66,366.00 853.78,366.63 854.55,367.41 C855.33,368.19 856.53,369.06 857.23,369.35 C858.15,369.73 857.96,370.31 856.56,371.44 C855.49,372.30 855.04,373.01 855.56,373.03 C856.08,373.05 855.82,373.61 854.99,374.28 C854.16,374.95 852.93,376.74 852.26,378.25 C851.59,379.76 850.58,381.00 850.02,381.00 C849.46,381.00 849.00,381.69 849.00,382.53 C849.00,383.37 848.33,384.32 847.51,384.64 C846.68,384.95 846.26,385.62 846.57,386.11 C846.88,386.61 846.42,387.28 845.56,387.61 C844.70,387.94 844.00,388.80 844.00,389.52 C844.00,390.24 843.66,390.98 843.25,391.17 C842.84,391.35 841.74,392.85 840.82,394.50 C838.32,398.95 836.21,399.94 834.40,397.50 C833.58,396.40 832.71,395.62 832.45,395.76 C831.89,396.08 821.71,391.02 821.00,390.07 C820.72,389.70 819.42,389.34 818.09,389.25 C816.76,389.17 815.41,388.71 815.09,388.24 C814.77,387.76 813.60,387.35 812.50,387.33 C811.40,387.30 806.52,386.75 801.66,386.10 C796.80,385.45 792.07,385.16 791.16,385.45 C790.25,385.73 787.34,386.05 784.71,386.15 C782.07,386.25 779.68,386.70 779.40,387.16 C779.11,387.62 778.20,388.00 777.37,388.00 C776.54,388.00 775.19,388.66 774.38,389.48 C773.57,390.29 772.04,391.56 771.00,392.29 C768.51,394.03 766.52,401.63 767.37,406.15 C768.76,413.55 776.48,419.89 788.50,423.50 C799.08,426.67 807.70,429.40 812.79,431.16 C815.70,432.17 818.76,433.00 819.60,433.00 C820.44,433.00 823.46,434.09 826.31,435.42 C829.17,436.75 833.08,438.56 835.00,439.45 C842.07,442.72 844.45,444.39 850.09,450.01 C853.88,453.79 856.27,457.15 857.08,459.87 C857.76,462.14 858.77,464.00 859.32,464.00 C859.88,464.00 860.04,464.30 859.68,464.66 C859.31,465.02 859.46,465.85 860.00,466.50 C860.54,467.15 861.51,471.13 862.17,475.35 C863.46,483.68 862.15,498.91 859.91,501.61 C859.27,502.38 859.05,503.00 859.40,503.00 C859.76,503.00 859.36,504.05 858.52,505.33 C857.68,506.61 857.29,507.96 857.66,508.33 C858.03,508.70 857.78,509.00 857.11,509.00 C856.43,509.00 856.16,509.45 856.50,510.00 C856.84,510.55 856.61,511.00 856.00,511.00 C855.39,511.00 855.13,511.40 855.43,511.88 C855.72,512.36 854.79,513.94 853.35,515.38 C851.91,516.82 851.11,518.00 851.57,518.00 C852.04,518.00 850.43,520.03 848.00,522.50 C845.57,524.97 843.00,527.00 842.29,527.00 C841.58,527.00 841.00,527.45 841.00,528.01 C841.00,528.56 839.20,529.74 837.00,530.62 C834.80,531.50 833.00,532.62 833.00,533.11 C833.00,533.60 832.10,534.00 831.00,534.00 C829.90,534.00 829.00,534.38 829.00,534.85 C829.00,535.96 816.00,540.12 814.82,539.39 C814.32,539.08 813.26,539.37 812.46,540.04 C810.40,541.74 780.56,542.72 779.57,541.11 ZM 395.67 539.33 C395.30,538.97 395.00,496.62 395.00,445.23 C395.00,360.43 395.15,351.84 396.58,352.39 C397.45,352.73 424.68,353.00 457.08,353.00 L 516.00 353.00 L 516.00 370.50 L 516.00 388.00 L 473.48 388.00 L 430.96 388.00 L 431.23 407.25 L 431.50 426.50 L 468.25 426.76 L 505.00 427.02 L 505.00 444.51 L 505.00 462.00 L 467.98 462.00 L 430.96 462.00 L 431.23 483.25 L 431.50 504.50 L 473.75 504.33 L 516.00 504.16 L 516.00 522.08 L 516.00 540.00 L 456.17 540.00 C423.26,540.00 396.03,539.70 395.67,539.33 ZM 543.24 446.32 L 543.50 352.50 L 581.50 352.19 C618.23,351.89 625.94,352.29 637.50,355.14 C639.70,355.68 643.25,356.56 645.38,357.09 C647.51,357.63 651.15,359.18 653.47,360.53 C655.78,361.89 658.42,363.00 659.34,363.00 C660.25,363.00 661.00,363.45 661.00,364.00 C661.00,364.55 661.90,365.00 663.00,365.00 C664.10,365.00 665.00,365.37 665.00,365.83 C665.00,366.29 666.24,367.30 667.75,368.08 C669.26,368.86 671.01,369.95 671.64,370.50 C672.27,371.05 674.06,372.40 675.64,373.50 C680.55,376.94 689.00,385.23 689.00,386.61 C689.00,387.34 689.91,388.42 691.03,389.01 C692.14,389.61 692.84,390.45 692.58,390.87 C692.32,391.30 692.98,392.39 694.05,393.31 C695.12,394.23 696.00,395.66 696.00,396.49 C696.00,397.32 696.38,398.00 696.85,398.00 C697.77,398.00 701.16,404.93 700.95,406.39 C700.89,406.88 701.31,407.57 701.89,407.93 C702.47,408.29 703.12,409.47 703.32,410.54 C703.53,411.62 704.19,413.70 704.79,415.16 C707.46,421.67 709.19,433.99 709.20,446.68 C709.21,453.92 708.84,460.45 708.39,461.17 C707.94,461.90 707.49,464.20 707.38,466.28 C707.27,468.37 706.68,470.68 706.06,471.43 C705.44,472.18 705.03,473.17 705.16,473.64 C705.58,475.26 703.84,481.00 702.92,481.00 C702.41,481.00 702.09,481.34 702.20,481.75 C702.60,483.19 699.84,490.00 698.86,490.00 C698.32,490.00 698.16,490.45 698.50,491.00 C698.84,491.55 698.61,492.00 698.00,492.00 C697.39,492.00 697.12,492.38 697.41,492.85 C697.69,493.32 697.05,494.65 695.97,495.81 C694.88,496.97 694.00,498.39 694.00,498.96 C694.00,499.53 693.55,500.00 693.00,500.00 C692.45,500.00 692.00,500.51 692.00,501.14 C692.00,502.88 681.02,515.00 679.45,515.00 C678.69,515.00 677.59,515.90 677.00,517.00 C676.41,518.10 675.32,519.00 674.57,519.00 C673.83,519.00 672.95,519.67 672.64,520.50 C672.32,521.33 671.37,522.00 670.53,522.00 C669.69,522.00 669.00,522.42 669.00,522.92 C669.00,523.43 667.42,524.36 665.50,525.00 C663.58,525.64 662.00,526.52 662.00,526.96 C662.00,527.40 660.54,528.31 658.75,528.98 C656.96,529.65 654.60,530.58 653.50,531.03 C652.40,531.49 649.70,532.40 647.50,533.06 C645.30,533.72 643.01,534.65 642.41,535.12 C641.81,535.60 641.03,535.70 640.68,535.35 C640.33,535.00 639.39,535.26 638.59,535.92 C637.79,536.59 635.64,537.16 633.82,537.20 C631.99,537.23 629.87,537.77 629.10,538.38 C628.13,539.15 614.62,539.60 585.34,539.82 L 542.99 540.14 L 543.24 446.32 ZM 627.50 501.75 C632.45,500.51 636.72,499.23 637.00,498.90 C637.28,498.58 638.65,498.03 640.06,497.68 C641.47,497.34 643.95,495.92 645.56,494.53 C647.18,493.14 648.84,492.00 649.25,492.00 C650.38,492.00 662.00,480.15 662.00,479.00 C662.00,478.45 662.45,478.00 663.00,478.00 C663.55,478.00 664.00,477.51 664.00,476.90 C664.00,475.38 667.20,468.63 668.28,467.89 C670.61,466.29 671.75,442.86 669.94,433.80 C668.56,426.88 665.00,417.00 663.88,417.00 C663.40,417.00 663.00,416.40 663.00,415.66 C663.00,413.92 649.45,400.28 646.93,399.48 C645.87,399.14 645.00,398.42 645.00,397.87 C645.00,397.33 644.59,397.14 644.08,397.45 C643.57,397.76 642.50,397.36 641.70,396.56 C640.90,395.75 639.96,395.37 639.62,395.71 C639.28,396.05 639.00,395.78 639.00,395.11 C639.00,394.43 638.55,394.16 638.00,394.50 C637.45,394.84 637.00,394.61 637.00,394.00 C637.00,393.39 636.55,393.16 636.00,393.50 C635.45,393.84 635.00,393.59 635.00,392.95 C635.00,392.31 634.33,392.05 633.50,392.36 C632.67,392.68 632.00,392.55 632.00,392.07 C632.00,391.60 630.99,391.22 629.75,391.24 C628.51,391.25 625.03,390.77 622.00,390.16 C618.97,389.56 608.51,388.94 598.75,388.78 L 581.00 388.50 L 581.00 446.25 L 581.00 504.00 L 599.75 504.00 C615.88,504.01 619.76,503.69 627.50,501.75 Z" fill="rgb(252,253,253)"/>
</g>
</svg>