<svg xmlns="http://www.w3.org/2000/svg" width="1024" height="1024" viewBox="0 0 1024 1024">
<g>
<path d="M 680.00 568.16 C671.23,569.98 665.68,570.15 608.00,570.41 C532.30,570.74 512.87,570.40 511.84,568.74 C511.01,567.40 514.37,565.09 517.25,565.04 C520.21,564.98 519.19,563.22 515.50,562.00 C512.28,560.94 510.53,558.00 513.11,558.00 C513.84,558.00 514.00,556.86 513.57,554.75 C512.87,551.24 512.40,547.80 512.16,544.25 C512.06,542.88 511.35,542.00 510.33,542.00 C509.42,542.00 509.00,541.66 509.42,541.25 C509.83,540.84 547.59,540.26 593.33,539.96 L 676.50 539.42 L 685.50 536.64 C710.86,528.82 730.23,512.52 741.54,489.50 C747.47,477.41 750.06,467.09 750.70,453.00 C752.19,420.29 737.40,388.72 712.98,372.49 L 706.23 368.00 L 680.00 368.00 L 680.00 384.00 L 646.00 384.00 L 646.00 340.00 L 715.63 340.00 L 724.45 345.25 C746.15,358.18 765.29,382.79 773.35,408.13 C778.34,423.81 779.36,430.47 779.42,447.50 C779.47,464.59 778.16,473.30 773.46,487.12 C759.39,528.49 724.23,558.98 680.00,568.16 ZM 536.00 361.55 C522.07,363.23 519.70,363.30 520.50,362.00 C520.84,361.45 522.67,361.00 524.56,361.00 C528.97,361.00 528.97,359.30 524.57,357.46 C519.96,355.54 519.54,354.53 522.56,352.55 L 525.10 350.89 L 524.55 335.20 C523.72,311.10 523.28,305.39 522.09,303.18 C520.70,300.58 520.68,293.47 522.05,290.91 C522.85,289.42 522.72,288.58 521.50,287.36 C519.50,285.36 520.18,284.65 524.19,284.56 C528.38,284.48 528.83,282.54 525.05,280.86 C523.37,280.12 522.00,279.23 522.00,278.90 C522.00,277.40 532.62,277.24 541.65,278.59 C577.70,283.97 605.14,296.61 612.40,311.17 C617.11,320.64 614.99,328.26 605.16,337.09 C591.92,348.98 566.98,357.81 536.00,361.55 ZM 660.41 310.03 C657.71,310.42 653.70,311.06 651.50,311.46 C645.10,312.61 642.79,310.07 639.00,297.73 C637.27,292.11 633.01,281.65 629.54,274.50 C614.47,243.46 592.35,220.98 563.52,207.41 C554.44,203.14 540.22,198.00 537.48,198.00 C536.67,198.00 536.00,197.32 536.00,196.50 C536.00,195.68 536.67,195.00 537.50,195.00 C538.33,195.00 539.00,194.55 539.00,194.00 C539.00,193.45 539.56,192.99 540.25,192.98 C540.94,192.98 542.15,192.56 542.94,192.06 C544.14,191.30 544.15,190.89 543.04,189.54 C541.94,188.22 541.93,187.25 542.98,184.07 C544.32,179.99 543.82,178.00 541.44,178.00 C540.65,178.00 540.00,177.34 540.00,176.53 C540.00,175.57 540.58,175.28 541.66,175.70 C542.78,176.13 543.09,175.96 542.61,175.17 C542.19,174.50 542.46,174.00 543.24,174.00 C543.99,174.00 545.12,173.48 545.77,172.83 C546.65,171.95 546.52,171.35 545.22,170.32 C543.70,169.13 543.85,169.05 546.50,169.62 C548.15,169.98 549.99,170.65 550.58,171.12 C551.17,171.58 552.62,172.11 553.80,172.29 C554.98,172.47 556.23,172.90 556.57,173.24 C556.91,173.58 557.83,173.62 558.60,173.32 C559.37,173.03 560.00,173.31 560.00,173.95 C560.00,174.59 560.42,174.86 560.93,174.54 C561.44,174.23 562.15,174.43 562.50,175.00 C562.85,175.57 563.48,175.82 563.89,175.57 C565.01,174.87 585.90,185.20 594.22,190.55 C610.25,200.88 629.20,219.28 641.55,236.50 C648.74,246.51 659.69,267.48 662.82,277.18 C665.79,286.45 669.00,299.47 669.00,302.31 C669.00,306.43 665.88,309.24 660.41,310.03 ZM 538.50 503.49 C527.05,505.21 509.62,505.54 512.00,504.00 C512.83,503.47 513.05,503.02 512.51,503.02 C511.97,503.01 512.80,501.82 514.36,500.37 C516.49,498.39 516.87,497.54 515.89,496.93 C514.83,496.28 514.83,495.68 515.93,493.63 C516.66,492.26 516.99,490.43 516.66,489.57 C516.33,488.70 516.54,485.86 517.12,483.25 C517.70,480.64 518.25,475.23 518.34,471.24 C518.47,465.11 518.23,463.89 516.75,463.42 C514.48,462.70 514.54,461.73 517.00,459.50 C519.93,456.85 519.52,455.00 516.00,455.00 C514.35,455.00 513.00,454.56 513.00,454.01 C513.00,453.46 515.75,453.06 519.25,453.11 C526.02,453.21 532.05,452.68 536.00,451.64 C537.38,451.28 540.75,450.81 543.50,450.59 C546.25,450.38 549.17,449.96 550.00,449.66 C550.83,449.36 555.10,448.35 559.50,447.42 C579.21,443.24 599.45,434.18 609.14,425.21 L 615.00 419.78 L 615.00 439.71 C615.00,463.67 614.34,466.36 606.28,475.06 C593.53,488.84 569.71,498.83 538.50,503.49 ZM 534.79 431.94 C529.45,432.53 523.89,433.00 522.43,433.00 C522.19,433.00 521.96,433.01 521.76,433.02 C521.21,433.04 520.81,433.06 520.55,432.87 C519.83,432.37 520.16,430.37 521.40,422.86 C521.57,421.84 521.75,420.73 521.95,419.50 C523.92,407.49 525.00,388.16 523.84,385.83 C523.18,384.49 523.72,383.92 526.50,383.00 C528.42,382.37 531.23,381.98 532.75,382.14 C534.26,382.30 536.07,382.07 536.77,381.64 C537.47,381.21 539.27,380.95 540.77,381.07 C542.27,381.19 544.17,381.04 545.00,380.74 C545.83,380.43 550.55,379.44 555.50,378.53 C577.08,374.55 597.47,366.89 609.13,358.38 C611.68,356.52 614.05,355.00 614.38,355.00 C614.72,355.00 615.00,363.56 615.00,374.03 C615.00,395.97 614.62,397.47 607.27,404.82 C594.43,417.66 565.06,428.65 534.79,431.94 ZM 718.60 277.00 L 718.90 308.00 L 688.00 308.00 L 688.00 277.00 ZM 784.00 314.00 L 784.00 344.00 L 754.00 344.00 L 754.00 314.00 ZM 751.50 242.00 L 751.50 270.91 L 736.25 271.20 L 721.00 271.50 L 721.00 256.75 L 721.00 242.00 ZM 696.00 412.00 L 696.00 439.00 L 667.00 439.00 L 667.00 412.00 ZM 544.21 196.60 C543.14,197.76 543.27,198.00 544.96,198.00 C546.08,198.00 547.00,197.58 547.00,197.06 C547.00,195.40 545.54,195.17 544.21,196.60 Z" fill="rgb(24,172,199)"/>
<path d="M 522.50 799.50 C515.00,800.62 502.99,800.99 474.41,800.99 L 436.32 801.00 L 435.66 771.75 C435.30,755.66 435.00,715.77 435.00,683.10 L 435.00 623.70 L 474.25 624.31 C523.90,625.08 533.70,626.47 552.48,635.36 C573.66,645.40 585.86,657.70 593.59,676.84 C598.73,689.56 599.51,694.37 599.42,713.00 C599.34,729.02 599.10,731.25 596.63,739.38 C589.23,763.75 577.69,777.83 556.01,788.93 C544.67,794.75 535.97,797.49 522.50,799.50 ZM 406.20 784.50 L 406.50 801.00 L 342.91 801.00 L 279.33 801.00 L 278.66 758.84 C278.30,735.65 278.00,695.82 278.00,670.34 L 278.00 624.00 L 406.00 624.00 L 406.00 659.00 L 316.96 659.00 L 317.50 696.50 L 393.00 697.02 L 393.00 729.00 L 317.00 729.00 L 317.00 768.00 L 405.91 768.00 ZM 712.50 800.01 C706.66,801.87 702.77,802.29 689.00,802.55 C679.92,802.71 671.38,802.64 670.00,802.39 C657.78,800.16 646.33,797.36 639.12,794.83 C629.56,791.48 617.04,785.26 616.38,783.54 C616.14,782.93 619.59,775.36 624.04,766.72 L 632.13 751.02 L 638.20 755.13 C646.04,760.46 656.70,765.36 666.60,768.17 C678.16,771.46 696.29,771.42 703.77,768.08 C712.47,764.21 716.14,757.89 714.56,749.48 C713.75,745.17 708.97,739.54 703.93,736.97 C701.87,735.91 691.66,732.60 681.24,729.60 C670.83,726.60 659.46,722.98 655.96,721.56 C641.87,715.84 629.12,704.86 624.28,694.31 C622.24,689.84 621.58,686.57 621.22,679.06 C620.42,662.50 624.22,652.48 635.49,641.50 C648.32,628.98 661.13,624.07 683.00,623.27 C698.18,622.72 709.10,624.17 723.14,628.60 C731.37,631.20 748.32,639.09 749.40,640.83 C749.70,641.32 745.87,648.31 740.88,656.36 L 731.82 671.01 L 729.16 669.13 C724.44,665.80 714.62,661.25 706.96,658.84 C700.73,656.89 697.35,656.50 686.43,656.50 C673.80,656.50 673.22,656.59 669.14,659.29 C663.67,662.91 661.01,667.35 661.00,672.85 C660.99,684.61 668.18,689.74 694.69,696.92 C702.84,699.13 712.86,702.08 716.96,703.48 C732.44,708.76 745.29,718.76 750.64,729.70 C753.12,734.75 753.53,736.90 753.86,746.37 C754.31,759.55 752.50,767.37 747.06,775.78 C739.90,786.85 728.36,794.94 712.50,800.01 ZM 474.00 659.00 L 474.00 768.00 L 492.04 768.00 C521.31,768.00 532.66,764.52 545.59,751.59 C556.59,740.60 561.00,729.50 561.00,712.85 C561.00,686.64 544.15,665.89 518.50,660.50 C513.80,659.52 505.34,659.03 492.75,659.02 ZM 367.00 313.33 C367.00,315.35 366.56,317.00 366.02,317.00 C365.46,317.00 365.31,315.62 365.67,313.75 C366.54,309.19 367.00,309.05 367.00,313.33 Z" fill="rgb(36,23,111)"/>
<path d="M 367.00 313.33 C367.00,309.05 366.54,309.19 365.67,313.75 C365.40,315.19 365.42,316.34 365.70,316.79 L 353.07 317.27 C336.11,317.92 327.38,320.13 312.00,327.67 C285.78,340.52 265.01,364.29 255.74,392.04 C251.05,406.07 249.61,415.37 249.69,431.00 C249.82,455.40 255.18,472.89 268.82,493.50 C274.07,501.42 288.61,516.53 294.25,519.91 C296.31,521.15 298.00,522.60 298.00,523.14 C298.00,523.68 298.41,523.86 298.91,523.55 C299.42,523.24 299.98,523.33 300.16,523.74 C300.35,524.16 303.65,526.08 307.50,528.00 C311.35,529.92 314.65,531.84 314.84,532.26 C315.02,532.67 315.58,532.76 316.09,532.45 C316.59,532.14 317.00,532.34 317.00,532.91 C317.00,533.47 317.67,533.68 318.50,533.36 C319.33,533.05 320.00,533.28 320.00,533.89 C320.00,534.50 320.34,534.92 320.75,534.83 C322.48,534.44 329.00,536.30 329.00,537.18 C329.00,537.70 329.90,537.85 331.00,537.50 C332.16,537.13 333.00,537.32 333.00,537.95 C333.00,538.61 333.98,538.79 335.50,538.41 C337.05,538.02 338.00,538.21 338.00,538.90 C338.00,539.65 339.33,539.81 342.00,539.38 C344.68,538.96 346.00,539.12 346.00,539.87 C346.00,541.05 422.90,541.21 552.05,540.33 C526.89,540.62 509.69,540.97 509.42,541.25 C509.00,541.66 509.42,542.00 510.33,542.00 C511.35,542.00 512.06,542.88 512.16,544.25 C512.40,547.80 512.87,551.24 513.57,554.75 C514.00,556.86 513.84,558.00 513.11,558.00 C510.53,558.00 512.28,560.94 515.50,562.00 C519.19,563.22 520.21,564.98 517.25,565.04 C514.37,565.09 511.01,567.40 511.84,568.74 C512.51,569.82 520.95,570.34 547.55,570.48 C449.49,570.38 339.19,569.29 334.51,568.17 C322.84,565.37 313.95,562.52 305.61,558.93 C296.21,554.88 281.00,546.15 281.00,544.80 C281.00,544.36 280.31,544.00 279.47,544.00 C278.63,544.00 277.68,543.33 277.36,542.50 C277.05,541.67 276.21,541.00 275.50,541.00 C274.02,541.00 253.73,521.93 254.45,521.21 C254.72,520.95 253.82,519.86 252.47,518.79 C251.11,517.73 250.00,516.21 250.00,515.43 C250.00,514.64 249.55,514.00 249.00,514.00 C248.45,514.00 248.00,513.31 248.00,512.47 C248.00,511.63 247.33,510.68 246.51,510.36 C245.68,510.05 245.24,509.42 245.53,508.96 C245.81,508.50 245.25,507.66 244.27,507.09 C243.30,506.52 242.82,506.05 243.20,506.03 C243.59,506.01 242.81,504.82 241.47,503.37 C240.13,501.93 239.28,500.36 239.58,499.87 C239.87,499.39 239.61,499.00 239.00,499.00 C238.39,499.00 238.16,498.55 238.50,498.00 C238.84,497.45 238.57,497.00 237.89,497.00 C237.22,497.00 236.95,496.72 237.29,496.38 C237.63,496.04 237.25,495.10 236.44,494.30 C235.64,493.50 235.24,492.43 235.55,491.92 C235.86,491.41 235.61,491.00 235.00,491.00 C234.39,491.00 234.16,490.55 234.50,490.00 C234.84,489.45 234.61,489.00 234.00,489.00 C233.39,489.00 233.16,488.55 233.50,488.00 C233.84,487.45 233.61,487.00 233.00,487.00 C232.39,487.00 232.16,486.55 232.50,486.00 C232.84,485.45 232.60,485.00 231.98,485.00 C231.35,485.00 231.02,484.44 231.25,483.76 C231.47,483.08 231.04,481.89 230.27,481.13 C229.51,480.37 229.12,479.13 229.41,478.37 C229.70,477.62 229.52,477.00 229.00,477.00 C228.48,477.00 228.32,476.33 228.64,475.50 C228.95,474.67 228.75,474.00 228.19,474.00 C227.19,474.00 225.39,468.36 225.84,466.64 C225.97,466.17 225.56,465.17 224.94,464.42 C224.31,463.67 223.80,461.47 223.80,459.53 C223.80,457.59 223.40,456.00 222.91,456.00 C222.01,456.00 221.85,454.62 221.96,447.61 C221.99,445.48 221.59,443.21 221.06,442.57 C219.83,441.09 220.03,417.90 221.28,416.26 C221.80,415.58 221.93,413.87 221.58,412.47 C221.23,411.06 221.25,409.40 221.64,408.78 C222.02,408.16 222.48,406.27 222.65,404.58 C223.26,398.70 223.43,398.00 224.28,398.00 C224.75,398.00 224.86,397.14 224.53,396.08 C224.19,395.03 224.37,393.89 224.92,393.55 C225.46,393.21 225.66,392.28 225.35,391.47 C225.04,390.66 225.27,390.00 225.86,390.00 C226.45,390.00 226.68,389.33 226.36,388.50 C226.05,387.67 226.17,387.00 226.64,387.00 C227.11,387.00 227.57,385.78 227.66,384.28 C227.74,382.78 228.31,381.40 228.91,381.20 C229.52,380.99 229.76,380.42 229.45,379.91 C229.14,379.41 229.34,379.00 229.91,379.00 C230.47,379.00 230.68,378.33 230.36,377.50 C230.05,376.67 230.31,376.00 230.95,376.00 C231.59,376.00 231.84,375.55 231.50,375.00 C231.16,374.45 231.39,374.00 232.00,374.00 C232.61,374.00 232.84,373.55 232.50,373.00 C232.16,372.45 232.41,372.00 233.05,372.00 C233.69,372.00 233.96,371.34 233.65,370.53 C233.34,369.72 233.72,368.42 234.49,367.65 C235.27,366.87 235.63,365.96 235.29,365.62 C234.95,365.28 235.22,365.00 235.89,365.00 C236.57,365.00 236.84,364.55 236.50,364.00 C236.16,363.45 236.39,363.00 237.00,363.00 C237.61,363.00 237.84,362.55 237.50,361.99 C237.15,361.44 237.57,360.72 238.43,360.39 C239.29,360.06 239.74,359.39 239.44,358.90 C239.13,358.40 239.39,358.00 240.00,358.00 C240.61,358.00 240.87,357.60 240.56,357.10 C240.26,356.61 240.71,355.94 241.57,355.61 C242.43,355.28 242.88,354.61 242.57,354.11 C242.26,353.62 242.71,352.94 243.57,352.61 C244.43,352.28 244.88,351.61 244.57,351.11 C244.26,350.62 244.71,349.94 245.57,349.61 C246.43,349.28 246.85,348.56 246.50,348.01 C246.16,347.45 246.36,347.00 246.94,347.00 C247.52,347.00 248.00,346.35 248.00,345.56 C248.00,344.76 249.01,343.40 250.25,342.54 C251.49,341.67 252.50,340.60 252.50,340.15 C252.50,339.70 254.25,337.69 256.39,335.67 C258.53,333.65 259.90,332.00 259.44,332.00 C258.98,332.00 260.13,330.42 262.00,328.50 C263.87,326.58 265.93,325.00 266.58,325.00 C267.23,325.00 268.96,323.42 270.43,321.50 C271.90,319.58 273.77,318.00 274.58,318.00 C275.40,318.00 276.32,317.33 276.64,316.50 C276.95,315.67 277.85,315.00 278.64,315.00 C279.42,315.00 280.32,314.33 280.64,313.50 C280.95,312.67 281.84,312.00 282.61,312.00 C283.37,312.00 284.00,311.55 284.00,311.00 C284.00,310.45 284.67,310.00 285.50,310.00 C286.33,310.00 287.00,309.56 287.00,309.02 C287.00,308.48 288.12,307.76 289.50,307.41 C290.88,307.07 292.00,306.45 292.00,306.04 C292.00,304.86 311.90,295.82 313.01,296.50 C313.55,296.84 314.00,296.59 314.00,295.95 C314.00,295.31 314.67,295.05 315.50,295.36 C316.33,295.68 317.00,295.45 317.00,294.86 C317.00,294.27 317.65,294.03 318.44,294.34 C319.22,294.64 320.03,294.40 320.23,293.81 C320.43,293.22 322.03,292.68 323.79,292.62 C325.55,292.55 327.00,292.11 327.00,291.64 C327.00,291.17 328.12,291.07 329.50,291.41 C331.06,291.80 332.00,291.61 332.00,290.91 C332.00,290.21 332.94,290.02 334.50,290.41 C336.08,290.81 337.00,290.62 337.00,289.89 C337.00,289.15 338.08,288.97 340.08,289.37 C343.35,290.02 345.98,288.43 345.25,286.24 C345.02,285.56 345.37,285.00 346.02,285.00 C346.68,285.00 346.95,284.33 346.64,283.50 C346.32,282.67 346.55,282.00 347.14,282.00 C347.73,282.00 347.95,281.33 347.64,280.50 C347.32,279.67 347.55,279.00 348.14,279.00 C348.73,279.00 348.95,278.33 348.64,277.50 C348.32,276.67 348.55,276.00 349.14,276.00 C349.73,276.00 349.95,275.33 349.64,274.50 C349.32,273.67 349.55,273.00 350.14,273.00 C350.73,273.00 350.95,272.33 350.64,271.50 C350.32,270.67 350.53,270.00 351.09,270.00 C351.66,270.00 351.84,269.55 351.50,269.00 C351.16,268.45 351.41,268.00 352.05,268.00 C352.69,268.00 352.95,267.33 352.64,266.50 C352.32,265.67 352.53,265.00 353.09,265.00 C353.66,265.00 353.84,264.55 353.50,264.00 C353.16,263.45 353.39,263.00 354.00,263.00 C354.61,263.00 354.84,262.55 354.50,262.00 C354.16,261.45 354.39,261.00 355.00,261.00 C355.61,261.00 355.84,260.55 355.50,260.00 C355.16,259.45 355.39,259.00 356.00,259.00 C356.61,259.00 356.84,258.55 356.50,258.00 C356.16,257.45 356.41,257.00 357.05,257.00 C357.69,257.00 357.95,256.33 357.64,255.50 C357.32,254.68 357.53,254.00 358.09,254.00 C358.66,254.00 358.84,253.55 358.50,252.99 C358.15,252.44 358.57,251.72 359.43,251.39 C360.29,251.06 360.74,250.39 360.44,249.90 C360.13,249.40 360.39,249.00 361.00,249.00 C361.61,249.00 361.84,248.55 361.50,248.00 C361.16,247.45 361.39,247.00 362.00,247.00 C362.61,247.00 362.87,246.60 362.56,246.10 C362.26,245.61 362.71,244.94 363.57,244.61 C364.43,244.28 364.85,243.56 364.50,243.01 C364.16,242.45 364.39,242.00 365.00,242.00 C365.61,242.00 365.87,241.60 365.56,241.10 C365.26,240.61 365.71,239.94 366.57,239.61 C367.43,239.28 367.84,238.56 367.50,238.00 C367.16,237.44 367.57,236.72 368.43,236.39 C369.29,236.06 369.75,235.41 369.47,234.95 C369.18,234.48 369.90,233.59 371.06,232.97 C372.22,232.35 372.91,231.58 372.59,231.26 C372.27,230.94 372.92,230.05 374.02,229.27 C375.13,228.50 375.82,227.52 375.56,227.09 C375.29,226.67 376.41,225.34 378.03,224.14 C379.66,222.93 380.89,221.63 380.77,221.23 C380.48,220.25 396.70,204.00 397.96,204.00 C398.51,204.00 399.69,202.88 400.59,201.50 C401.49,200.12 402.81,199.00 403.51,199.00 C404.21,199.00 405.05,198.32 405.36,197.50 C405.68,196.68 406.63,196.00 407.47,196.00 C408.31,196.00 409.00,195.55 409.00,195.00 C409.00,194.45 409.45,194.00 410.00,194.00 C410.55,194.00 411.90,193.10 413.00,192.00 C414.10,190.90 415.67,190.00 416.50,190.00 C417.33,190.00 418.00,189.55 418.00,189.00 C418.00,188.45 418.88,188.00 419.95,188.00 C421.02,188.00 422.26,187.38 422.70,186.62 C423.76,184.80 437.39,178.00 439.98,178.00 C441.09,178.00 442.00,177.50 442.00,176.89 C442.00,176.28 442.67,176.05 443.50,176.36 C444.33,176.68 445.00,176.45 445.00,175.86 C445.00,175.27 445.66,175.04 446.47,175.35 C447.28,175.66 448.63,175.23 449.46,174.39 C450.30,173.56 451.44,173.15 451.99,173.50 C452.55,173.84 453.00,173.59 453.00,172.94 C453.00,172.26 453.84,171.99 455.00,172.29 C456.10,172.58 457.00,172.36 457.00,171.80 C457.00,171.24 457.67,171.05 458.50,171.36 C459.33,171.68 460.00,171.45 460.00,170.85 C460.00,170.26 460.90,170.00 462.00,170.29 C463.10,170.58 464.00,170.35 464.00,169.79 C464.00,169.23 464.90,169.00 466.00,169.29 C467.10,169.58 468.00,169.36 468.00,168.80 C468.00,168.21 469.06,168.05 470.50,168.41 C472.03,168.79 473.00,168.61 473.00,167.94 C473.00,167.24 474.09,167.08 476.00,167.50 C478.02,167.94 479.00,167.77 479.00,166.97 C479.00,166.15 480.09,165.98 482.50,166.43 C484.60,166.83 486.00,166.69 486.00,166.09 C486.00,165.46 489.12,165.32 494.50,165.70 C500.58,166.13 503.00,165.97 503.00,165.15 C503.00,163.65 511.65,163.62 512.58,165.12 C513.03,165.86 515.11,166.03 518.63,165.61 C522.35,165.18 524.00,165.33 524.00,166.12 C524.00,166.87 525.22,167.06 527.50,166.69 C529.66,166.34 531.00,166.53 531.00,167.19 C531.00,167.83 532.16,168.02 533.93,167.66 C535.54,167.34 537.00,167.49 537.18,167.99 C537.36,168.50 540.15,169.15 543.39,169.45 C543.71,169.48 544.02,169.51 544.34,169.55 C544.47,169.72 544.77,169.97 545.22,170.32 C546.52,171.35 546.65,171.95 545.77,172.83 C545.12,173.48 543.99,174.00 543.24,174.00 C542.46,174.00 542.19,174.50 542.61,175.17 C543.09,175.96 542.78,176.13 541.66,175.70 C540.58,175.28 540.00,175.57 540.00,176.53 C540.00,177.34 540.65,178.00 541.44,178.00 C543.82,178.00 544.32,179.99 542.98,184.07 C541.93,187.25 541.94,188.22 543.04,189.54 C544.15,190.89 544.14,191.30 542.94,192.06 C542.15,192.56 540.94,192.98 540.25,192.98 C539.56,192.99 539.00,193.45 539.00,194.00 C539.00,194.55 538.33,195.00 537.50,195.00 C536.67,195.00 536.00,195.68 536.00,196.50 C536.00,197.32 536.67,198.00 537.48,198.00 C538.85,198.00 543.11,199.29 548.15,201.11 C535.85,196.93 523.71,195.07 506.45,194.32 C483.15,193.31 464.68,197.44 443.13,208.49 C426.70,216.92 411.73,229.07 399.40,244.00 C384.57,261.95 371.26,289.77 367.78,310.09 L 366.63 316.76 L 366.37 316.77 C366.74,316.24 367.00,314.90 367.00,313.33 ZM 526.70 277.73 C523.87,277.88 522.00,278.27 522.00,278.90 C522.00,279.23 523.37,280.12 525.05,280.86 C528.83,282.54 528.38,284.48 524.19,284.56 C520.18,284.65 519.50,285.36 521.50,287.36 C522.72,288.58 522.85,289.42 522.05,290.91 C520.68,293.47 520.70,300.58 522.09,303.18 C523.28,305.39 523.72,311.10 524.55,335.20 L 525.10 350.89 L 522.56 352.55 C519.54,354.53 519.96,355.54 524.57,357.46 C528.97,359.30 528.97,361.00 524.56,361.00 C522.67,361.00 520.84,361.45 520.50,362.00 C520.37,362.22 520.32,362.40 520.40,362.54 C504.85,363.06 484.60,362.87 476.00,361.88 C465.88,360.72 454.35,358.40 443.53,355.36 C433.98,352.67 412.00,342.66 412.00,341.00 C412.00,340.45 411.53,340.00 410.96,340.00 C409.65,340.00 401.55,331.78 401.82,330.72 C401.93,330.29 401.34,329.68 400.52,329.37 C399.69,329.05 399.26,328.39 399.56,327.90 C399.87,327.40 399.66,327.00 399.09,327.00 C398.53,327.00 398.32,326.33 398.64,325.50 C398.95,324.67 398.83,324.00 398.36,324.00 C397.89,324.00 397.50,321.98 397.50,319.50 C397.50,317.02 397.82,315.00 398.22,315.00 C398.61,315.00 398.68,314.33 398.36,313.50 C398.05,312.67 398.31,312.00 398.95,312.00 C399.59,312.00 399.87,311.60 399.56,311.10 C399.26,310.61 399.69,309.95 400.52,309.63 C401.34,309.32 401.91,308.71 401.77,308.28 C401.38,307.07 407.16,301.00 408.70,301.00 C409.45,301.00 410.32,300.33 410.64,299.50 C410.95,298.67 411.84,298.00 412.61,298.00 C413.37,298.00 414.00,297.57 414.00,297.04 C414.00,296.51 415.78,295.60 417.95,295.01 C420.13,294.43 422.50,293.36 423.23,292.63 C425.12,290.74 429.08,288.75 429.70,289.37 C430.00,289.66 430.92,289.23 431.75,288.39 C432.58,287.56 433.87,287.12 434.63,287.41 C435.38,287.70 436.00,287.53 436.00,287.04 C436.00,286.54 437.39,286.17 439.10,286.22 C440.80,286.27 442.55,285.73 442.98,285.03 C443.42,284.32 444.28,284.05 444.89,284.43 C445.50,284.81 446.00,284.59 446.00,283.94 C446.00,283.26 446.84,282.99 448.00,283.29 C449.10,283.58 450.00,283.37 450.00,282.84 C450.00,282.30 450.90,282.15 452.00,282.50 C453.23,282.89 454.00,282.68 454.00,281.95 C454.00,281.26 454.83,280.98 456.00,281.29 C457.10,281.58 458.00,281.35 458.00,280.78 C458.00,280.17 459.22,279.99 461.00,280.35 C462.82,280.71 464.00,280.53 464.00,279.90 C464.00,279.24 465.15,279.09 467.00,279.50 C468.90,279.92 470.00,279.76 470.00,279.07 C470.00,278.35 471.39,278.20 474.00,278.62 C476.74,279.05 478.00,278.89 478.00,278.09 C478.00,277.28 479.49,277.13 483.00,277.59 C486.34,278.04 488.00,277.90 488.00,277.17 C488.00,276.42 493.32,276.13 505.00,276.24 C514.35,276.33 522.00,276.72 522.00,277.12 C522.00,277.42 523.94,277.65 526.70,277.73 ZM 527.95 382.60 C527.44,382.72 526.95,382.85 526.50,383.00 C523.72,383.92 523.18,384.49 523.84,385.83 C525.00,388.16 523.92,407.49 521.95,419.50 C521.75,420.73 521.57,421.84 521.40,422.86 C520.29,429.61 519.91,431.91 520.36,432.67 C504.70,433.05 483.07,432.80 475.65,431.94 C466.39,430.87 450.25,427.35 440.50,424.29 C431.06,421.33 417.00,415.09 417.00,413.86 C417.00,413.39 416.33,413.00 415.50,413.00 C414.67,413.00 414.00,412.55 414.00,412.00 C414.00,411.45 413.33,411.00 412.50,411.00 C411.67,411.00 411.00,410.55 411.00,410.00 C411.00,409.45 410.47,409.00 409.83,409.00 C409.18,409.00 406.72,406.98 404.35,404.50 C401.97,402.02 400.34,400.00 400.71,400.00 C401.08,400.00 400.55,399.39 399.54,398.65 C398.52,397.91 398.01,396.79 398.41,396.15 C398.80,395.52 398.61,395.00 398.00,395.00 C397.39,395.00 397.16,394.55 397.50,394.00 C397.84,393.45 397.64,393.00 397.06,393.00 C396.35,393.00 396.00,386.71 396.00,374.00 C396.00,358.07 396.23,355.00 397.45,355.00 C398.25,355.00 399.26,355.58 399.70,356.28 C400.14,356.99 402.98,359.12 406.00,361.02 C409.02,362.91 411.65,364.81 411.84,365.24 C412.02,365.66 412.58,365.76 413.09,365.45 C413.59,365.14 414.00,365.39 414.00,366.00 C414.00,366.61 414.45,366.84 415.00,366.50 C415.55,366.16 416.00,366.43 416.00,367.11 C416.00,367.78 416.30,368.03 416.67,367.66 C417.04,367.29 418.39,367.68 419.67,368.52 C420.95,369.36 422.01,369.70 422.02,369.27 C422.02,368.85 422.38,369.05 422.81,369.72 C423.24,370.40 424.69,371.15 426.04,371.40 C427.39,371.65 428.73,371.94 429.00,372.04 C429.27,372.15 429.84,372.18 430.25,372.12 C430.66,372.05 431.00,372.50 431.00,373.11 C431.00,373.72 431.66,373.96 432.47,373.65 C433.28,373.34 434.19,373.50 434.50,374.00 C434.81,374.50 435.72,374.66 436.53,374.35 C437.34,374.04 438.00,374.31 438.00,374.96 C438.00,375.68 438.77,375.89 440.00,375.50 C441.20,375.12 442.00,375.32 442.00,376.00 C442.00,376.68 442.80,376.88 444.00,376.50 C445.20,376.12 446.00,376.32 446.00,377.00 C446.00,377.68 446.80,377.88 448.00,377.50 C449.23,377.11 450.00,377.32 450.00,378.04 C450.00,378.80 450.90,378.99 452.50,378.59 C454.06,378.20 455.00,378.39 455.00,379.09 C455.00,379.79 455.94,379.98 457.50,379.59 C459.06,379.20 460.00,379.39 460.00,380.09 C460.00,380.84 461.18,381.00 463.50,380.57 C465.88,380.12 467.00,380.28 467.00,381.08 C467.00,381.89 468.24,382.06 471.00,381.62 C473.64,381.19 475.00,381.35 475.00,382.08 C475.00,382.83 476.60,382.97 480.00,382.50 C482.97,382.09 485.00,382.20 485.00,382.76 C485.00,383.92 513.03,383.54 527.95,382.60 ZM 538.50 503.49 C543.85,502.69 548.99,501.74 553.89,500.63 C549.01,501.74 543.87,502.72 538.50,503.55 C526.58,505.39 496.98,506.20 484.83,505.02 C466.22,503.21 435.98,495.72 430.47,491.55 C429.39,490.73 427.71,490.05 426.75,490.03 C425.79,490.01 425.00,489.64 425.00,489.20 C425.00,488.76 423.42,487.83 421.50,487.14 C419.58,486.44 418.00,485.45 418.00,484.94 C418.00,484.42 417.33,484.00 416.50,484.00 C415.67,484.00 415.00,483.55 415.00,483.00 C415.00,482.45 414.37,482.00 413.61,482.00 C412.84,482.00 411.95,481.33 411.64,480.50 C411.32,479.67 410.45,479.00 409.71,479.00 C408.06,479.00 403.74,474.59 404.58,473.76 C404.90,473.43 404.22,472.65 403.06,472.03 C401.90,471.41 401.21,470.47 401.53,469.95 C401.85,469.43 401.61,469.00 401.00,469.00 C400.39,469.00 400.14,468.59 400.45,468.08 C400.76,467.57 400.42,466.56 399.68,465.82 C398.94,465.08 398.53,463.92 398.75,463.24 C398.98,462.56 398.78,462.00 398.30,462.00 C397.83,462.00 397.30,453.23 397.13,442.50 C396.92,429.32 397.17,423.00 397.88,423.00 C398.95,423.00 406.23,428.89 406.83,430.25 C407.02,430.66 407.76,431.00 408.48,431.00 C409.20,431.00 410.06,431.70 410.39,432.56 C410.72,433.42 411.44,433.85 411.99,433.50 C412.55,433.16 413.00,433.39 413.00,434.00 C413.00,434.61 413.45,434.84 414.00,434.50 C414.55,434.16 415.00,434.36 415.00,434.94 C415.00,435.52 415.90,436.00 417.00,436.00 C418.10,436.00 419.00,436.48 419.00,437.06 C419.00,437.64 419.45,437.84 420.00,437.50 C420.55,437.16 421.00,437.39 421.00,438.00 C421.00,438.61 421.45,438.84 422.00,438.50 C422.55,438.16 423.00,438.41 423.00,439.05 C423.00,439.69 423.67,439.95 424.50,439.64 C425.33,439.32 426.00,439.53 426.00,440.09 C426.00,440.66 426.45,440.84 427.00,440.50 C427.55,440.16 428.00,440.41 428.00,441.05 C428.00,441.69 428.67,441.95 429.50,441.64 C430.33,441.32 431.00,441.48 431.00,442.00 C431.00,442.52 431.67,442.68 432.50,442.36 C433.33,442.05 434.00,442.27 434.00,442.86 C434.00,443.45 434.67,443.68 435.50,443.36 C436.33,443.05 437.00,443.27 437.00,443.86 C437.00,444.45 437.67,444.68 438.50,444.36 C439.33,444.04 440.00,444.33 440.00,445.00 C440.00,445.67 440.66,445.96 441.47,445.65 C442.28,445.34 443.22,445.55 443.57,446.11 C443.92,446.68 444.83,446.89 445.60,446.60 C446.37,446.30 447.00,446.55 447.00,447.14 C447.00,447.79 447.99,447.97 449.50,447.59 C451.02,447.21 452.00,447.39 452.00,448.05 C452.00,448.66 452.83,448.87 453.92,448.53 C454.97,448.19 456.13,448.41 456.50,449.00 C456.87,449.59 458.03,449.81 459.08,449.47 C460.19,449.12 461.00,449.34 461.00,449.98 C461.00,450.71 462.20,450.86 464.50,450.43 C466.95,449.97 468.00,450.14 468.00,451.00 C468.00,451.86 469.05,452.03 471.50,451.57 C473.84,451.13 475.00,451.29 475.00,452.05 C475.00,452.84 476.52,452.98 480.00,452.50 C482.78,452.12 485.00,452.21 485.00,452.70 C485.00,453.21 493.79,453.45 505.25,453.26 C527.36,452.89 532.22,452.63 536.00,451.64 C532.05,452.68 526.02,453.21 519.25,453.11 C515.75,453.06 513.00,453.46 513.00,454.01 C513.00,454.56 514.35,455.00 516.00,455.00 C519.52,455.00 519.93,456.85 517.00,459.50 C514.54,461.73 514.48,462.70 516.75,463.42 C518.23,463.89 518.47,465.11 518.34,471.24 C518.25,475.23 517.70,480.64 517.12,483.25 C516.54,485.86 516.33,488.70 516.66,489.57 C516.99,490.43 516.66,492.26 515.93,493.63 C514.83,495.68 514.83,496.28 515.89,496.93 C516.87,497.54 516.49,498.39 514.36,500.37 C512.80,501.82 511.97,503.01 512.51,503.02 C513.05,503.02 512.83,503.47 512.00,504.00 C509.62,505.54 527.05,505.21 538.50,503.49 ZM 544.21 196.60 C545.54,195.17 547.00,195.40 547.00,197.06 C547.00,197.58 546.08,198.00 544.96,198.00 C543.27,198.00 543.14,197.76 544.21,196.60 ZM 564.33 283.21 C557.28,281.35 549.68,279.79 541.65,278.59 C540.17,278.37 538.64,278.19 537.12,278.05 C545.50,278.73 555.01,280.59 564.33,283.21 ZM 536.00 361.55 C552.88,359.51 567.96,355.96 580.34,351.23 C567.87,356.10 553.42,359.44 536.00,361.55 ZM 614.11 324.79 C615.38,320.68 614.89,316.50 612.75,311.89 C614.18,314.70 615.00,317.48 615.00,319.88 C615.00,321.48 614.70,323.12 614.11,324.79 ZM 676.50 539.38 L 685.50 536.62 C710.79,528.88 730.23,512.53 741.54,489.50 C730.23,512.52 710.86,528.82 685.50,536.64 L 676.50 539.42 L 644.44 539.63 ZM 536.95 381.53 C537.55,381.16 539.27,380.95 540.77,381.07 C539.27,380.95 537.47,381.21 536.77,381.64 C536.16,382.02 534.69,382.24 533.31,382.18 C535.28,381.98 536.58,381.76 536.95,381.53 ZM 578.32 493.11 C590.24,488.23 599.72,482.15 606.28,475.06 C599.70,482.17 590.27,488.23 578.32,493.11 ZM 549.34 170.49 C549.89,170.65 550.28,170.82 550.47,170.98 C551.12,171.52 552.62,172.11 553.80,172.29 C552.62,172.11 551.17,171.58 550.58,171.12 C550.34,170.93 549.90,170.71 549.34,170.49 ZM 606.67 303.61 C605.43,302.40 604.04,301.21 602.52,300.05 C603.09,300.47 603.63,300.89 604.15,301.31 C605.02,302.03 605.87,302.80 606.67,303.61 Z" fill="rgb(92,83,241)"/>
<path d="M 0.00 512.00 L 0.00 0.00 L 512.00 0.00 L 1024.00 0.00 L 1024.00 512.00 L 1024.00 1024.00 L 512.00 1024.00 L 0.00 1024.00 L 0.00 512.00 ZM 712.50 800.01 C728.36,794.94 739.90,786.85 747.06,775.78 C752.50,767.37 754.31,759.55 753.86,746.37 C753.53,736.90 753.12,734.75 750.64,729.70 C745.29,718.76 732.44,708.76 716.96,703.48 C712.86,702.08 702.84,699.13 694.69,696.92 C668.18,689.74 660.99,684.61 661.00,672.85 C661.01,667.35 663.67,662.91 669.14,659.29 C673.22,656.59 673.80,656.50 686.43,656.50 C697.35,656.50 700.73,656.89 706.96,658.84 C714.62,661.25 724.44,665.80 729.16,669.13 L 731.82 671.01 L 740.88 656.36 C745.87,648.31 749.70,641.32 749.40,640.83 C748.32,639.09 731.37,631.20 723.14,628.60 C709.10,624.17 698.18,622.72 683.00,623.27 C661.13,624.07 648.32,628.98 635.49,641.50 C624.22,652.48 620.42,662.50 621.22,679.06 C621.58,686.57 622.24,689.84 624.28,694.31 C629.12,704.86 641.87,715.84 655.96,721.56 C659.46,722.98 670.83,726.60 681.24,729.60 C691.66,732.60 701.87,735.91 703.93,736.97 C708.97,739.54 713.75,745.17 714.56,749.48 C716.14,757.89 712.47,764.21 703.77,768.08 C696.29,771.42 678.16,771.46 666.60,768.17 C656.70,765.36 646.04,760.46 638.20,755.13 L 632.13 751.02 L 624.04 766.72 C619.59,775.36 616.14,782.93 616.38,783.54 C617.04,785.26 629.56,791.48 639.12,794.83 C646.33,797.36 657.78,800.16 670.00,802.39 C671.38,802.64 679.92,802.71 689.00,802.55 C702.77,802.29 706.66,801.87 712.50,800.01 ZM 406.20 784.50 L 405.91 768.00 L 361.45 768.00 L 317.00 768.00 L 317.00 748.50 L 317.00 729.00 L 355.00 729.00 L 393.00 729.00 L 393.00 713.01 L 393.00 697.02 L 355.25 696.76 L 317.50 696.50 L 317.23 677.75 L 316.96 659.00 L 361.48 659.00 L 406.00 659.00 L 406.00 641.50 L 406.00 624.00 L 342.00 624.00 L 278.00 624.00 L 278.00 670.34 C278.00,695.82 278.30,735.65 278.66,758.84 L 279.33 801.00 L 342.91 801.00 L 406.50 801.00 L 406.20 784.50 ZM 522.50 799.50 C535.97,797.49 544.67,794.75 556.01,788.93 C577.69,777.83 589.23,763.75 596.63,739.38 C599.10,731.25 599.34,729.02 599.42,713.00 C599.51,694.37 598.73,689.56 593.59,676.84 C585.86,657.70 573.66,645.40 552.48,635.36 C533.70,626.47 523.90,625.08 474.25,624.31 L 435.00 623.70 L 435.00 683.10 C435.00,715.77 435.30,755.66 435.66,771.75 L 436.32 801.00 L 474.41 800.99 C502.99,800.99 515.00,800.62 522.50,799.50 ZM 680.00 568.16 C724.23,558.98 759.39,528.49 773.46,487.12 C778.16,473.30 779.47,464.59 779.42,447.50 C779.36,430.47 778.34,423.81 773.35,408.13 C765.29,382.79 746.15,358.18 724.45,345.25 L 715.63 340.00 L 680.82 340.00 L 646.00 340.00 L 646.00 362.00 L 646.00 384.00 L 663.00 384.00 L 680.00 384.00 L 680.00 376.00 L 680.00 368.00 L 693.12 368.00 L 706.23 368.00 L 712.98 372.49 C737.40,388.72 752.19,420.29 750.70,453.00 C750.06,467.09 747.47,477.41 741.54,489.50 C730.23,512.53 710.79,528.88 685.50,536.62 L 676.50 539.38 L 587.00 540.07 C436.90,541.23 346.00,541.16 346.00,539.87 C346.00,539.12 344.68,538.96 342.00,539.38 C339.33,539.81 338.00,539.65 338.00,538.90 C338.00,538.21 337.05,538.02 335.50,538.41 C333.98,538.79 333.00,538.61 333.00,537.95 C333.00,537.32 332.16,537.13 331.00,537.50 C329.90,537.85 329.00,537.70 329.00,537.18 C329.00,536.30 322.48,534.44 320.75,534.83 C320.34,534.92 320.00,534.50 320.00,533.89 C320.00,533.28 319.33,533.05 318.50,533.36 C317.67,533.68 317.00,533.47 317.00,532.91 C317.00,532.34 316.59,532.14 316.09,532.45 C315.58,532.76 315.02,532.67 314.84,532.26 C314.65,531.84 311.35,529.92 307.50,528.00 C303.65,526.08 300.35,524.16 300.16,523.74 C299.98,523.33 299.42,523.24 298.91,523.55 C298.41,523.86 298.00,523.68 298.00,523.14 C298.00,522.60 296.31,521.15 294.25,519.91 C288.61,516.53 274.07,501.42 268.82,493.50 C255.18,472.89 249.82,455.40 249.69,431.00 C249.61,415.37 251.05,406.07 255.74,392.04 C265.01,364.29 285.78,340.52 312.00,327.67 C327.38,320.13 336.11,317.92 353.07,317.27 L 366.63 316.76 L 367.78 310.09 C371.26,289.77 384.57,261.95 399.40,244.00 C411.73,229.07 426.70,216.92 443.13,208.49 C464.68,197.44 483.15,193.31 506.45,194.32 C530.69,195.37 544.84,198.62 563.52,207.41 C592.35,220.98 614.47,243.46 629.54,274.50 C633.01,281.65 637.27,292.11 639.00,297.73 C642.79,310.07 645.10,312.61 651.50,311.46 C653.70,311.06 657.71,310.42 660.41,310.03 C665.88,309.24 669.00,306.43 669.00,302.31 C669.00,299.47 665.79,286.45 662.82,277.18 C659.69,267.48 648.74,246.51 641.55,236.50 C629.20,219.28 610.25,200.88 594.22,190.55 C585.90,185.20 565.01,174.87 563.89,175.57 C563.48,175.82 562.85,175.57 562.50,175.00 C562.15,174.43 561.44,174.23 560.93,174.54 C560.42,174.86 560.00,174.59 560.00,173.95 C560.00,173.31 559.37,173.03 558.60,173.32 C557.83,173.62 556.91,173.58 556.57,173.24 C556.23,172.90 554.98,172.47 553.80,172.29 C552.62,172.11 551.12,171.52 550.47,170.98 C549.82,170.44 546.63,169.75 543.39,169.45 C540.15,169.15 537.36,168.50 537.18,167.99 C537.00,167.49 535.54,167.34 533.93,167.66 C532.16,168.02 531.00,167.83 531.00,167.19 C531.00,166.53 529.66,166.34 527.50,166.69 C525.22,167.06 524.00,166.87 524.00,166.12 C524.00,165.33 522.35,165.18 518.63,165.61 C515.11,166.03 513.03,165.86 512.58,165.12 C511.65,163.62 503.00,163.65 503.00,165.15 C503.00,165.97 500.58,166.13 494.50,165.70 C489.12,165.32 486.00,165.46 486.00,166.09 C486.00,166.69 484.60,166.83 482.50,166.43 C480.09,165.98 479.00,166.15 479.00,166.97 C479.00,167.77 478.02,167.94 476.00,167.50 C474.09,167.08 473.00,167.24 473.00,167.94 C473.00,168.61 472.03,168.79 470.50,168.41 C469.06,168.05 468.00,168.21 468.00,168.80 C468.00,169.36 467.10,169.58 466.00,169.29 C464.90,169.00 464.00,169.23 464.00,169.79 C464.00,170.35 463.10,170.58 462.00,170.29 C460.90,170.00 460.00,170.26 460.00,170.85 C460.00,171.45 459.33,171.68 458.50,171.36 C457.67,171.05 457.00,171.24 457.00,171.80 C457.00,172.36 456.10,172.58 455.00,172.29 C453.84,171.99 453.00,172.26 453.00,172.94 C453.00,173.59 452.55,173.84 451.99,173.50 C451.44,173.15 450.30,173.56 449.46,174.39 C448.63,175.23 447.28,175.66 446.47,175.35 C445.66,175.04 445.00,175.27 445.00,175.86 C445.00,176.45 444.33,176.68 443.50,176.36 C442.67,176.05 442.00,176.28 442.00,176.89 C442.00,177.50 441.09,178.00 439.98,178.00 C437.39,178.00 423.76,184.80 422.70,186.62 C422.26,187.38 421.02,188.00 419.95,188.00 C418.88,188.00 418.00,188.45 418.00,189.00 C418.00,189.55 417.33,190.00 416.50,190.00 C415.67,190.00 414.10,190.90 413.00,192.00 C411.90,193.10 410.55,194.00 410.00,194.00 C409.45,194.00 409.00,194.45 409.00,195.00 C409.00,195.55 408.31,196.00 407.47,196.00 C406.63,196.00 405.68,196.68 405.36,197.50 C405.05,198.32 404.21,199.00 403.51,199.00 C402.81,199.00 401.49,200.12 400.59,201.50 C399.69,202.88 398.51,204.00 397.96,204.00 C396.70,204.00 380.48,220.25 380.77,221.23 C380.89,221.63 379.66,222.93 378.03,224.14 C376.41,225.34 375.29,226.67 375.56,227.09 C375.82,227.52 375.13,228.50 374.02,229.27 C372.92,230.05 372.27,230.94 372.59,231.26 C372.91,231.58 372.22,232.35 371.06,232.97 C369.90,233.59 369.18,234.48 369.47,234.95 C369.75,235.41 369.29,236.06 368.43,236.39 C367.57,236.72 367.16,237.44 367.50,238.00 C367.84,238.56 367.43,239.28 366.57,239.61 C365.71,239.94 365.26,240.61 365.56,241.10 C365.87,241.60 365.61,242.00 365.00,242.00 C364.39,242.00 364.16,242.45 364.50,243.01 C364.85,243.56 364.43,244.28 363.57,244.61 C362.71,244.94 362.26,245.61 362.56,246.10 C362.87,246.60 362.61,247.00 362.00,247.00 C361.39,247.00 361.16,247.45 361.50,248.00 C361.84,248.55 361.61,249.00 361.00,249.00 C360.39,249.00 360.13,249.40 360.44,249.90 C360.74,250.39 360.29,251.06 359.43,251.39 C358.57,251.72 358.15,252.44 358.50,252.99 C358.84,253.55 358.66,254.00 358.09,254.00 C357.53,254.00 357.32,254.68 357.64,255.50 C357.95,256.33 357.69,257.00 357.05,257.00 C356.41,257.00 356.16,257.45 356.50,258.00 C356.84,258.55 356.61,259.00 356.00,259.00 C355.39,259.00 355.16,259.45 355.50,260.00 C355.84,260.55 355.61,261.00 355.00,261.00 C354.39,261.00 354.16,261.45 354.50,262.00 C354.84,262.55 354.61,263.00 354.00,263.00 C353.39,263.00 353.16,263.45 353.50,264.00 C353.84,264.55 353.66,265.00 353.09,265.00 C352.53,265.00 352.32,265.67 352.64,266.50 C352.95,267.33 352.69,268.00 352.05,268.00 C351.41,268.00 351.16,268.45 351.50,269.00 C351.84,269.55 351.66,270.00 351.09,270.00 C350.53,270.00 350.32,270.67 350.64,271.50 C350.95,272.33 350.73,273.00 350.14,273.00 C349.55,273.00 349.32,273.67 349.64,274.50 C349.95,275.33 349.73,276.00 349.14,276.00 C348.55,276.00 348.32,276.67 348.64,277.50 C348.95,278.33 348.73,279.00 348.14,279.00 C347.55,279.00 347.32,279.67 347.64,280.50 C347.95,281.33 347.73,282.00 347.14,282.00 C346.55,282.00 346.32,282.67 346.64,283.50 C346.95,284.33 346.68,285.00 346.02,285.00 C345.37,285.00 345.02,285.56 345.25,286.24 C345.98,288.43 343.35,290.02 340.08,289.37 C338.08,288.97 337.00,289.15 337.00,289.89 C337.00,290.62 336.08,290.81 334.50,290.41 C332.94,290.02 332.00,290.21 332.00,290.91 C332.00,291.61 331.06,291.80 329.50,291.41 C328.12,291.07 327.00,291.17 327.00,291.64 C327.00,292.11 325.55,292.55 323.79,292.62 C322.03,292.68 320.43,293.22 320.23,293.81 C320.03,294.40 319.22,294.64 318.44,294.34 C317.65,294.03 317.00,294.27 317.00,294.86 C317.00,295.45 316.33,295.68 315.50,295.36 C314.67,295.05 314.00,295.31 314.00,295.95 C314.00,296.59 313.55,296.84 313.01,296.50 C311.90,295.82 292.00,304.86 292.00,306.04 C292.00,306.45 290.88,307.07 289.50,307.41 C288.12,307.76 287.00,308.48 287.00,309.02 C287.00,309.56 286.33,310.00 285.50,310.00 C284.67,310.00 284.00,310.45 284.00,311.00 C284.00,311.55 283.37,312.00 282.61,312.00 C281.84,312.00 280.95,312.67 280.64,313.50 C280.32,314.33 279.42,315.00 278.64,315.00 C277.85,315.00 276.95,315.67 276.64,316.50 C276.32,317.33 275.40,318.00 274.58,318.00 C273.77,318.00 271.90,319.58 270.43,321.50 C268.96,323.42 267.23,325.00 266.58,325.00 C265.93,325.00 263.87,326.58 262.00,328.50 C260.13,330.42 258.98,332.00 259.44,332.00 C259.90,332.00 258.53,333.65 256.39,335.67 C254.25,337.69 252.50,339.70 252.50,340.15 C252.50,340.60 251.49,341.67 250.25,342.54 C249.01,343.40 248.00,344.76 248.00,345.56 C248.00,346.35 247.52,347.00 246.94,347.00 C246.36,347.00 246.16,347.45 246.50,348.01 C246.85,348.56 246.43,349.28 245.57,349.61 C244.71,349.94 244.26,350.62 244.57,351.11 C244.88,351.61 244.43,352.28 243.57,352.61 C242.71,352.94 242.26,353.62 242.57,354.11 C242.88,354.61 242.43,355.28 241.57,355.61 C240.71,355.94 240.26,356.61 240.56,357.10 C240.87,357.60 240.61,358.00 240.00,358.00 C239.39,358.00 239.13,358.40 239.44,358.90 C239.74,359.39 239.29,360.06 238.43,360.39 C237.57,360.72 237.15,361.44 237.50,361.99 C237.84,362.55 237.61,363.00 237.00,363.00 C236.39,363.00 236.16,363.45 236.50,364.00 C236.84,364.55 236.57,365.00 235.89,365.00 C235.22,365.00 234.95,365.28 235.29,365.62 C235.63,365.96 235.27,366.87 234.49,367.65 C233.72,368.42 233.34,369.72 233.65,370.53 C233.96,371.34 233.69,372.00 233.05,372.00 C232.41,372.00 232.16,372.45 232.50,373.00 C232.84,373.55 232.61,374.00 232.00,374.00 C231.39,374.00 231.16,374.45 231.50,375.00 C231.84,375.55 231.59,376.00 230.95,376.00 C230.31,376.00 230.05,376.67 230.36,377.50 C230.68,378.33 230.47,379.00 229.91,379.00 C229.34,379.00 229.14,379.41 229.45,379.91 C229.76,380.42 229.52,380.99 228.91,381.20 C228.31,381.40 227.74,382.78 227.66,384.28 C227.57,385.78 227.11,387.00 226.64,387.00 C226.17,387.00 226.05,387.67 226.36,388.50 C226.68,389.33 226.45,390.00 225.86,390.00 C225.27,390.00 225.04,390.66 225.35,391.47 C225.66,392.28 225.46,393.21 224.92,393.55 C224.37,393.89 224.19,395.03 224.53,396.08 C224.86,397.14 224.75,398.00 224.28,398.00 C223.43,398.00 223.26,398.70 222.65,404.58 C222.48,406.27 222.02,408.16 221.64,408.78 C221.25,409.40 221.23,411.06 221.58,412.47 C221.93,413.87 221.80,415.58 221.28,416.26 C220.03,417.90 219.83,441.09 221.06,442.57 C221.59,443.21 221.99,445.48 221.96,447.61 C221.85,454.62 222.01,456.00 222.91,456.00 C223.40,456.00 223.80,457.59 223.80,459.53 C223.80,461.47 224.31,463.67 224.94,464.42 C225.56,465.17 225.97,466.17 225.84,466.64 C225.39,468.36 227.19,474.00 228.19,474.00 C228.75,474.00 228.95,474.67 228.64,475.50 C228.32,476.33 228.48,477.00 229.00,477.00 C229.52,477.00 229.70,477.62 229.41,478.37 C229.12,479.13 229.51,480.37 230.27,481.13 C231.04,481.89 231.47,483.08 231.25,483.76 C231.02,484.44 231.35,485.00 231.98,485.00 C232.60,485.00 232.84,485.45 232.50,486.00 C232.16,486.55 232.39,487.00 233.00,487.00 C233.61,487.00 233.84,487.45 233.50,488.00 C233.16,488.55 233.39,489.00 234.00,489.00 C234.61,489.00 234.84,489.45 234.50,490.00 C234.16,490.55 234.39,491.00 235.00,491.00 C235.61,491.00 235.86,491.41 235.55,491.92 C235.24,492.43 235.64,493.50 236.44,494.30 C237.25,495.10 237.63,496.04 237.29,496.38 C236.95,496.72 237.22,497.00 237.89,497.00 C238.57,497.00 238.84,497.45 238.50,498.00 C238.16,498.55 238.39,499.00 239.00,499.00 C239.61,499.00 239.87,499.39 239.58,499.87 C239.28,500.36 240.13,501.93 241.47,503.37 C242.81,504.82 243.59,506.01 243.20,506.03 C242.82,506.05 243.30,506.52 244.27,507.09 C245.25,507.66 245.81,508.50 245.53,508.96 C245.24,509.42 245.68,510.05 246.51,510.36 C247.33,510.68 248.00,511.63 248.00,512.47 C248.00,513.31 248.45,514.00 249.00,514.00 C249.55,514.00 250.00,514.64 250.00,515.43 C250.00,516.21 251.11,517.73 252.47,518.79 C253.82,519.86 254.72,520.95 254.45,521.21 C253.73,521.93 274.02,541.00 275.50,541.00 C276.21,541.00 277.05,541.67 277.36,542.50 C277.68,543.33 278.63,544.00 279.47,544.00 C280.31,544.00 281.00,544.36 281.00,544.80 C281.00,546.15 296.21,554.88 305.61,558.93 C313.95,562.52 322.84,565.37 334.51,568.17 C340.20,569.53 501.87,570.85 608.00,570.40 C665.70,570.15 671.23,569.98 680.00,568.16 ZM 538.50 503.55 C570.13,498.66 593.55,488.81 606.28,475.06 C614.34,466.36 615.00,463.67 615.00,439.71 L 615.00 419.78 L 609.14 425.21 C599.45,434.18 579.21,443.24 559.50,447.42 C555.10,448.35 550.83,449.36 550.00,449.66 C549.17,449.96 546.25,450.38 543.50,450.59 C540.75,450.81 537.38,451.28 536.00,451.64 C532.22,452.63 527.36,452.89 505.25,453.26 C493.79,453.45 485.00,453.21 485.00,452.70 C485.00,452.21 482.78,452.12 480.00,452.50 C476.52,452.98 475.00,452.84 475.00,452.05 C475.00,451.29 473.84,451.13 471.50,451.57 C469.05,452.03 468.00,451.86 468.00,451.00 C468.00,450.14 466.95,449.97 464.50,450.43 C462.20,450.86 461.00,450.71 461.00,449.98 C461.00,449.34 460.19,449.12 459.08,449.47 C458.03,449.81 456.87,449.59 456.50,449.00 C456.13,448.41 454.97,448.19 453.92,448.53 C452.83,448.87 452.00,448.66 452.00,448.05 C452.00,447.39 451.02,447.21 449.50,447.59 C447.99,447.97 447.00,447.79 447.00,447.14 C447.00,446.55 446.37,446.30 445.60,446.60 C444.83,446.89 443.92,446.68 443.57,446.11 C443.22,445.55 442.28,445.34 441.47,445.65 C440.66,445.96 440.00,445.67 440.00,445.00 C440.00,444.33 439.33,444.04 438.50,444.36 C437.67,444.68 437.00,444.45 437.00,443.86 C437.00,443.27 436.33,443.05 435.50,443.36 C434.67,443.68 434.00,443.45 434.00,442.86 C434.00,442.27 433.33,442.05 432.50,442.36 C431.67,442.68 431.00,442.52 431.00,442.00 C431.00,441.48 430.33,441.32 429.50,441.64 C428.67,441.95 428.00,441.69 428.00,441.05 C428.00,440.41 427.55,440.16 427.00,440.50 C426.45,440.84 426.00,440.66 426.00,440.09 C426.00,439.53 425.33,439.32 424.50,439.64 C423.67,439.95 423.00,439.69 423.00,439.05 C423.00,438.41 422.55,438.16 422.00,438.50 C421.45,438.84 421.00,438.61 421.00,438.00 C421.00,437.39 420.55,437.16 420.00,437.50 C419.45,437.84 419.00,437.64 419.00,437.06 C419.00,436.48 418.10,436.00 417.00,436.00 C415.90,436.00 415.00,435.52 415.00,434.94 C415.00,434.36 414.55,434.16 414.00,434.50 C413.45,434.84 413.00,434.61 413.00,434.00 C413.00,433.39 412.55,433.16 411.99,433.50 C411.44,433.85 410.72,433.42 410.39,432.56 C410.06,431.70 409.20,431.00 408.48,431.00 C407.76,431.00 407.02,430.66 406.83,430.25 C406.23,428.89 398.95,423.00 397.88,423.00 C397.17,423.00 396.92,429.32 397.13,442.50 C397.30,453.23 397.83,462.00 398.30,462.00 C398.78,462.00 398.98,462.56 398.75,463.24 C398.53,463.92 398.94,465.08 399.68,465.82 C400.42,466.56 400.76,467.57 400.45,468.08 C400.14,468.59 400.39,469.00 401.00,469.00 C401.61,469.00 401.85,469.43 401.53,469.95 C401.21,470.47 401.90,471.41 403.06,472.03 C404.22,472.65 404.90,473.43 404.58,473.76 C403.74,474.59 408.06,479.00 409.71,479.00 C410.45,479.00 411.32,479.67 411.64,480.50 C411.95,481.33 412.84,482.00 413.61,482.00 C414.37,482.00 415.00,482.45 415.00,483.00 C415.00,483.55 415.67,484.00 416.50,484.00 C417.33,484.00 418.00,484.42 418.00,484.94 C418.00,485.45 419.58,486.44 421.50,487.14 C423.42,487.83 425.00,488.76 425.00,489.20 C425.00,489.64 425.79,490.01 426.75,490.03 C427.71,490.05 429.39,490.73 430.47,491.55 C435.98,495.72 466.22,503.21 484.83,505.02 C496.98,506.20 526.58,505.39 538.50,503.55 ZM 696.00 425.50 L 696.00 412.00 L 681.50 412.00 L 667.00 412.00 L 667.00 425.50 L 667.00 439.00 L 681.50 439.00 L 696.00 439.00 L 696.00 425.50 ZM 534.79 431.94 C565.06,428.65 594.43,417.66 607.27,404.82 C614.62,397.47 615.00,395.97 615.00,374.03 C615.00,363.56 614.72,355.00 614.38,355.00 C614.05,355.00 611.68,356.52 609.13,358.38 C597.47,366.89 577.08,374.55 555.50,378.53 C550.55,379.44 545.83,380.43 545.00,380.74 C544.17,381.04 542.27,381.19 540.77,381.07 C539.27,380.95 537.55,381.16 536.95,381.53 C534.36,383.13 485.00,384.30 485.00,382.76 C485.00,382.20 482.97,382.09 480.00,382.50 C476.60,382.97 475.00,382.83 475.00,382.08 C475.00,381.35 473.64,381.19 471.00,381.62 C468.24,382.06 467.00,381.89 467.00,381.08 C467.00,380.28 465.88,380.12 463.50,380.57 C461.18,381.00 460.00,380.84 460.00,380.09 C460.00,379.39 459.06,379.20 457.50,379.59 C455.94,379.98 455.00,379.79 455.00,379.09 C455.00,378.39 454.06,378.20 452.50,378.59 C450.90,378.99 450.00,378.80 450.00,378.04 C450.00,377.32 449.23,377.11 448.00,377.50 C446.80,377.88 446.00,377.68 446.00,377.00 C446.00,376.32 445.20,376.12 444.00,376.50 C442.80,376.88 442.00,376.68 442.00,376.00 C442.00,375.32 441.20,375.12 440.00,375.50 C438.77,375.89 438.00,375.68 438.00,374.96 C438.00,374.31 437.34,374.04 436.53,374.35 C435.72,374.66 434.81,374.50 434.50,374.00 C434.19,373.50 433.28,373.34 432.47,373.65 C431.66,373.96 431.00,373.72 431.00,373.11 C431.00,372.50 430.66,372.05 430.25,372.12 C429.84,372.18 429.27,372.15 429.00,372.04 C428.73,371.94 427.39,371.65 426.04,371.40 C424.69,371.15 423.24,370.40 422.81,369.72 C422.38,369.05 422.02,368.85 422.02,369.27 C422.01,369.70 420.95,369.36 419.67,368.52 C418.39,367.68 417.04,367.29 416.67,367.66 C416.30,368.03 416.00,367.78 416.00,367.11 C416.00,366.43 415.55,366.16 415.00,366.50 C414.45,366.84 414.00,366.61 414.00,366.00 C414.00,365.39 413.59,365.14 413.09,365.45 C412.58,365.76 412.02,365.66 411.84,365.24 C411.65,364.81 409.02,362.91 406.00,361.02 C402.98,359.12 400.14,356.99 399.70,356.28 C399.26,355.58 398.25,355.00 397.45,355.00 C396.23,355.00 396.00,358.07 396.00,374.00 C396.00,386.71 396.35,393.00 397.06,393.00 C397.64,393.00 397.84,393.45 397.50,394.00 C397.16,394.55 397.39,395.00 398.00,395.00 C398.61,395.00 398.80,395.52 398.41,396.15 C398.01,396.79 398.52,397.91 399.54,398.65 C400.55,399.39 401.08,400.00 400.71,400.00 C400.34,400.00 401.97,402.02 404.35,404.50 C406.72,406.98 409.18,409.00 409.83,409.00 C410.47,409.00 411.00,409.45 411.00,410.00 C411.00,410.55 411.67,411.00 412.50,411.00 C413.33,411.00 414.00,411.45 414.00,412.00 C414.00,412.55 414.67,413.00 415.50,413.00 C416.33,413.00 417.00,413.39 417.00,413.86 C417.00,415.09 431.06,421.33 440.50,424.29 C450.25,427.35 466.39,430.87 475.65,431.94 C485.97,433.14 523.77,433.14 534.79,431.94 ZM 536.00 361.55 C558.49,358.83 576.02,354.04 590.75,346.60 C605.61,339.08 615.00,328.74 615.00,319.88 C615.00,314.25 610.47,306.49 604.15,301.31 C589.31,289.15 552.59,277.53 529.75,277.76 C525.49,277.80 522.00,277.52 522.00,277.12 C522.00,276.72 514.35,276.33 505.00,276.24 C493.32,276.13 488.00,276.42 488.00,277.17 C488.00,277.90 486.34,278.04 483.00,277.59 C479.49,277.13 478.00,277.28 478.00,278.09 C478.00,278.89 476.74,279.05 474.00,278.62 C471.39,278.20 470.00,278.35 470.00,279.07 C470.00,279.76 468.90,279.92 467.00,279.50 C465.15,279.09 464.00,279.24 464.00,279.90 C464.00,280.53 462.82,280.71 461.00,280.35 C459.22,279.99 458.00,280.17 458.00,280.78 C458.00,281.35 457.10,281.58 456.00,281.29 C454.83,280.98 454.00,281.26 454.00,281.95 C454.00,282.68 453.23,282.89 452.00,282.50 C450.90,282.15 450.00,282.30 450.00,282.84 C450.00,283.37 449.10,283.58 448.00,283.29 C446.84,282.99 446.00,283.26 446.00,283.94 C446.00,284.59 445.50,284.81 444.89,284.43 C444.28,284.05 443.42,284.32 442.98,285.03 C442.55,285.73 440.80,286.27 439.10,286.22 C437.39,286.17 436.00,286.54 436.00,287.04 C436.00,287.53 435.38,287.70 434.63,287.41 C433.87,287.12 432.58,287.56 431.75,288.39 C430.92,289.23 430.00,289.66 429.70,289.37 C429.08,288.75 425.12,290.74 423.23,292.63 C422.50,293.36 420.13,294.43 417.95,295.01 C415.78,295.60 414.00,296.51 414.00,297.04 C414.00,297.57 413.37,298.00 412.61,298.00 C411.84,298.00 410.95,298.67 410.64,299.50 C410.32,300.33 409.45,301.00 408.70,301.00 C407.16,301.00 401.38,307.07 401.77,308.28 C401.91,308.71 401.34,309.32 400.52,309.63 C399.69,309.95 399.26,310.61 399.56,311.10 C399.87,311.60 399.59,312.00 398.95,312.00 C398.31,312.00 398.05,312.67 398.36,313.50 C398.68,314.33 398.61,315.00 398.22,315.00 C397.82,315.00 397.50,317.02 397.50,319.50 C397.50,321.98 397.89,324.00 398.36,324.00 C398.83,324.00 398.95,324.67 398.64,325.50 C398.32,326.33 398.53,327.00 399.09,327.00 C399.66,327.00 399.87,327.40 399.56,327.90 C399.26,328.39 399.69,329.05 400.52,329.37 C401.34,329.68 401.93,330.29 401.82,330.72 C401.55,331.78 409.65,340.00 410.96,340.00 C411.53,340.00 412.00,340.45 412.00,341.00 C412.00,342.66 433.98,352.67 443.53,355.36 C454.35,358.40 465.88,360.72 476.00,361.88 C488.12,363.27 523.34,363.08 536.00,361.55 ZM 784.00 329.00 L 784.00 314.00 L 769.00 314.00 L 754.00 314.00 L 754.00 329.00 L 754.00 344.00 L 769.00 344.00 L 784.00 344.00 L 784.00 329.00 ZM 718.75 292.50 L 718.60 277.00 L 703.30 277.00 L 688.00 277.00 L 688.00 292.50 L 688.00 308.00 L 703.45 308.00 L 718.90 308.00 L 718.75 292.50 ZM 751.50 256.45 L 751.50 242.00 L 736.25 242.00 L 721.00 242.00 L 721.00 256.75 L 721.00 271.50 L 736.25 271.20 L 751.50 270.91 L 751.50 256.45 ZM 474.00 713.50 L 474.00 659.00 L 492.75 659.02 C505.34,659.03 513.80,659.52 518.50,660.50 C544.15,665.89 561.00,686.64 561.00,712.85 C561.00,729.50 556.59,740.60 545.59,751.59 C532.66,764.52 521.31,768.00 492.04,768.00 L 474.00 768.00 L 474.00 713.50 Z" fill="rgb(254,254,254)"/>
</g>
</svg>